<svg xmlns="http://www.w3.org/2000/svg" fill="none" stroke="#000" stroke-width="2" viewBox="0 0 347 347"><path d="M5 5h337v337H5z"/><path d="M16 16h233v223H16zm0 235h233v63H16zm254.81-37.93h55.42v55.42h-55.42z"/><circle cx="298" cy="40" r="16"/><path fill="#000" stroke="none" d="M284.24 237.96v-7.73h5.15v7.73h7.7v5.15h-7.7v7.7h-5.15v-7.7h-7.72v-5.15zm26.62 18.47-4.9-2.43 5.29-10.3q-3.85 0-6.55-2.76-2.7-2.76-2.7-6.86 0-3.97 2.76-6.71 2.78-2.76 6.7-2.76 4.1 0 6.81 2.86 2.74 2.85 2.74 6.55 0 1.4-.43 2.82-.41 1.4-1.94 4.35zm.72-18.18q1.6 0 2.7-1.18 1.09-1.17 1.09-2.9 0-1.77-1.16-2.97-1.13-1.2-2.65-1.2-1.61 0-2.76 1.2-1.16 1.18-1.16 2.95 0 1.75 1.12 2.92 1.13 1.18 2.82 1.18z" aria-label="9"/><path d="M270.81 274.2h55.42v55.42h-55.42z"/><path fill="#000" stroke="none" d="M308.83 302.84v4.1h-4.76l-1.46 9.86h-4.14l1.44-9.87h-3.94l-1.44 9.87h-4.12l1.45-9.87h-4.64v-4.1h5.27l.62-3.87h-4.6v-4.1h5.18l1.34-9.12h4.01l-1.27 9.12h3.93l1.34-9.12h4.14l-1.34 9.12H310v4.1h-4.76l-.53 3.88zm-7.7-3.88h-4l-.54 3.88h3.9z" aria-label="#"/><path d="M270.81 151.94h55.42v55.42h-55.42z"/><path fill="#000" stroke="none" d="M284.24 176.83v-7.73h5.15v7.73h7.7v5.15h-7.7v7.7h-5.15v-7.7h-7.72v-5.15zm23.24-5.11h-5.54q.43-3.36 2.4-5.4 2.77-2.84 6.95-2.84 3.73 0 6.24 2.37 2.53 2.37 2.53 5.62 0 2.02-1.1 3.69t-3.2 2.7q2.76.82 4.3 2.88 1.57 2.04 1.57 4.82 0 4.08-3 6.92-3.02 2.82-7.67 2.82-4.4 0-7.19-2.65-2.78-2.68-3.05-7.27h5.7q.38 2.34 1.63 3.5 1.28 1.13 3.22 1.13 2.02 0 3.33-1.3 1.34-1.3 1.34-3.17 0-2.06-1.79-3.48t-5.17-1.46v-4.95q2.08-.16 3.1-.63 1.02-.5 1.58-1.34.57-.85.57-1.8 0-1.23-.86-2.03-.87-.83-2.27-.83-1.23 0-2.24.76-1.01.75-1.38 1.94z" aria-label="3"/><path d="M270.81 90.81h55.42v55.42h-55.42z"/><path fill="#000" stroke="none" d="M284.24 115.7v-7.73h5.15v7.73h7.7v5.15h-7.7v7.7h-5.15v-7.7h-7.72v-5.15zm22.17-12.59h8.63v30.3h-5.73v-24.88h-6.24z" aria-label="1"/><path fill="#000" stroke="none" d="M19.93 21.35h6.18v2.31h-3.84v2.26h3.84v2.28h-3.84v5.6h-2.34zm8.94-.55c.4 0 .75.15 1.04.44.3.3.44.65.44 1.07 0 .4-.14.76-.43 1.05a1.4 1.4 0 0 1-1.04.44c-.4 0-.76-.15-1.05-.44a1.5 1.5 0 0 1-.43-1.09c0-.4.14-.75.43-1.04.28-.29.63-.43 1.04-.43zm-1.16 3.8h2.32v9.2H27.7zm4.4 0h2.31v.93c.52-.44 1-.74 1.42-.91.43-.18.87-.27 1.31-.27.92 0 1.7.32 2.33.96.54.54.8 1.34.8 2.4v6.09H38v-4.04c0-1.1-.05-1.83-.15-2.19-.1-.36-.27-.63-.52-.82-.24-.2-.54-.29-.9-.29-.47 0-.88.16-1.21.48a2.5 2.5 0 0 0-.7 1.29c-.07.29-.1.91-.1 1.87v3.7h-2.3zm17.21-3.56h2.3V33.8h-2.3v-.97a3.82 3.82 0 0 1-2.84 1.21 4.1 4.1 0 0 1-3.08-1.38 4.84 4.84 0 0 1-1.3-3.45c0-1.42.42-2.58 1.26-3.5a4.02 4.02 0 0 1 4.62-1.04c.48.2.93.52 1.34.94zm-2.42 5.45c-.72 0-1.32.25-1.8.76a2.7 2.7 0 0 0-.7 1.94c0 .8.24 1.45.72 1.96s1.08.77 1.78.77a2.4 2.4 0 0 0 1.81-.75c.48-.51.72-1.17.72-2 0-.8-.24-1.44-.72-1.94a2.42 2.42 0 0 0-1.81-.74zm12.2-5.3h2.3v3.4h1.36v1.99H61.4v7.22h-2.3v-7.22h-1.18v-1.99h1.18zm4.92-.15h2.29v4.48c.45-.39.9-.68 1.36-.87.46-.2.92-.3 1.4-.3.9 0 1.68.32 2.3.95.54.55.8 1.35.8 2.41v6.09H69.9v-4.04c0-1.06-.05-1.79-.15-2.16a1.5 1.5 0 0 0-.53-.85 1.44 1.44 0 0 0-.9-.28c-.47 0-.88.16-1.21.47-.34.3-.57.73-.7 1.26-.07.28-.1.91-.1 1.9v3.7h-2.3Zm19.62 8.82H76.2c.11.66.4 1.18.86 1.57.47.38 1.06.58 1.78.58.87 0 1.6-.3 2.23-.91l1.95.91a4.63 4.63 0 0 1-1.75 1.54 5.5 5.5 0 0 1-2.41.49 4.67 4.67 0 0 1-4.9-4.79c0-1.4.46-2.57 1.36-3.5a4.58 4.58 0 0 1 3.41-1.4c1.45 0 2.63.47 3.54 1.4a5.01 5.01 0 0 1 1.36 3.67zm-2.32-1.82a2.31 2.31 0 0 0-.9-1.25 2.6 2.6 0 0 0-1.57-.48c-.64 0-1.2.18-1.69.54-.3.23-.59.62-.85 1.2zm9.05-7h2.31v7.35l3.4-3.8h2.9l-3.96 4.42 4.44 4.79H96.6l-3.9-4.24v4.24h-2.32zm19.27 8.82h-7.43c.11.66.4 1.18.86 1.57.47.38 1.06.58 1.78.58.87 0 1.6-.3 2.23-.91l1.95.91a4.63 4.63 0 0 1-1.75 1.54 5.5 5.5 0 0 1-2.41.49 4.67 4.67 0 0 1-4.9-4.79c0-1.4.46-2.57 1.36-3.5a4.58 4.58 0 0 1 3.41-1.4c1.45 0 2.63.47 3.54 1.4.9.93 1.36 2.15 1.36 3.67zm-2.32-1.82a2.31 2.31 0 0 0-.9-1.25 2.6 2.6 0 0 0-1.57-.48c-.64 0-1.2.18-1.69.54-.3.23-.59.62-.85 1.2zm3.16-3.45h2.36l2.4 5.78 2.64-5.78h2.37l-5.77 12.58h-2.39l1.9-4.06zm10.06 0h2.26l1.85 5.24 2-5.24h1.38l1.95 5.18 1.86-5.18h2.27l-3.36 9.2h-1.46l-1.97-5.24-2.02 5.25h-1.45zm19.2-.24a4.86 4.86 0 0 1 2.48 9.05 4.9 4.9 0 0 1-2.46.64 4.61 4.61 0 0 1-3.39-1.4 4.7 4.7 0 0 1-1.4-3.44c0-1.44.53-2.63 1.59-3.6a4.62 4.62 0 0 1 3.19-1.25zm.04 2.18c-.71 0-1.31.25-1.8.75-.47.5-.7 1.14-.7 1.92 0 .8.23 1.45.7 1.94.47.5 1.07.75 1.8.75.72 0 1.32-.25 1.8-.76.48-.5.72-1.14.72-1.93 0-.8-.24-1.44-.71-1.93a2.37 2.37 0 0 0-1.8-.74zm6.2-1.94h1.98v1.16c.21-.46.5-.8.85-1.04a2.06 2.06 0 0 1 2.11-.12l-.72 1.99c-.27-.14-.5-.2-.67-.2-.35 0-.65.22-.9.66-.25.44-.37 1.3-.37 2.59l.01.45v3.72h-2.3zm12.89-3.55h2.3V33.8h-2.3v-.97a3.82 3.82 0 0 1-2.84 1.21 4.11 4.11 0 0 1-3.09-1.38 4.84 4.84 0 0 1-1.3-3.45c0-1.42.42-2.58 1.26-3.5a4.02 4.02 0 0 1 4.62-1.04c.49.2.94.52 1.35.94zm-2.43 5.45c-.72 0-1.31.25-1.79.76-.47.5-.7 1.15-.7 1.94 0 .8.23 1.45.71 1.96.49.51 1.08.77 1.79.77a2.4 2.4 0 0 0 1.8-.75c.49-.51.73-1.17.73-2 0-.8-.24-1.44-.72-1.94a2.42 2.42 0 0 0-1.82-.74zm10.81-1.9h.83a20 20 0 0 1 .06-2.14c.06-.5.27-.9.63-1.2.37-.3.88-.45 1.55-.45.48 0 1.02.1 1.62.33v1.76a3.1 3.1 0 0 0-.82-.14c-.27 0-.47.05-.59.17-.09.08-.14.25-.14.52v1.15h1.46v1.96h-1.46v7.25h-2.31v-7.25h-.82zm10.28-.24A4.86 4.86 0 0 1 180 33.4a4.9 4.9 0 0 1-2.46.64 4.61 4.61 0 0 1-3.39-1.4 4.7 4.7 0 0 1-1.4-3.44c0-1.44.53-2.63 1.59-3.6a4.62 4.62 0 0 1 3.19-1.25zm.03 2.18c-.71 0-1.31.25-1.8.75-.46.5-.7 1.14-.7 1.92 0 .8.23 1.45.7 1.94.47.5 1.07.75 1.8.75.72 0 1.32-.25 1.8-.76.48-.5.72-1.14.72-1.93 0-.8-.24-1.44-.71-1.93a2.37 2.37 0 0 0-1.8-.74zm6.2-1.94h1.98v1.16c.21-.46.5-.8.85-1.04a2.06 2.06 0 0 1 2.11-.12l-.72 1.99c-.27-.14-.5-.2-.67-.2-.35 0-.65.22-.9.66-.24.44-.37 1.3-.37 2.59l.01.45v3.72h-2.3zm11.21-3.4h2.3v3.4h1.38v1.99h-1.37v7.22h-2.3v-7.22h-1.2v-1.99h1.2zm4.93-.15h2.3v4.48c.44-.39.9-.68 1.36-.87.45-.2.91-.3 1.38-.3.92 0 1.69.32 2.31.95.54.55.8 1.35.8 2.41v6.09h-2.27v-4.04c0-1.06-.05-1.79-.15-2.16a1.5 1.5 0 0 0-.53-.85 1.44 1.44 0 0 0-.9-.28c-.47 0-.87.16-1.21.47-.33.3-.57.73-.7 1.26-.06.28-.1.91-.1 1.9v3.7h-2.3zm19.62 8.82h-7.43c.11.66.4 1.18.86 1.57.47.38 1.06.58 1.79.58.86 0 1.6-.3 2.22-.91l1.95.91a4.63 4.63 0 0 1-1.75 1.54 5.5 5.5 0 0 1-2.4.49 4.67 4.67 0 0 1-4.9-4.79c0-1.4.45-2.57 1.35-3.5a4.6 4.6 0 0 1 3.42-1.4c1.45 0 2.62.47 3.53 1.4a5.02 5.02 0 0 1 1.37 3.67zm-2.32-1.82a2.31 2.31 0 0 0-.9-1.25 2.6 2.6 0 0 0-1.56-.48c-.65 0-1.21.18-1.7.54-.3.23-.58.62-.84 1.2zM18.54 41.92h.82c0-1.2.03-1.92.06-2.14.06-.5.28-.9.64-1.2.36-.3.88-.45 1.55-.45.48 0 1.02.11 1.62.33v1.76a3.1 3.1 0 0 0-.82-.14c-.27 0-.47.06-.6.17-.08.08-.13.26-.13.52v1.15h1.46v1.97h-1.47v7.24h-2.3V43.9h-.83zm10.28-.23a4.86 4.86 0 0 1 2.47 9.04 4.9 4.9 0 0 1-2.46.64 4.61 4.61 0 0 1-3.39-1.4 4.7 4.7 0 0 1-1.4-3.43c0-1.44.53-2.64 1.59-3.6a4.62 4.62 0 0 1 3.19-1.25zm.03 2.17c-.72 0-1.31.25-1.8.76-.47.5-.7 1.13-.7 1.9 0 .81.23 1.46.7 1.96s1.07.74 1.8.74a2.4 2.4 0 0 0 1.8-.75c.47-.5.71-1.15.71-1.94 0-.8-.23-1.43-.7-1.92a2.37 2.37 0 0 0-1.8-.75zm6.5-5.49h2.3v12.76h-2.3zm4.15 0h2.3v12.76h-2.3zm8.72 3.32a4.86 4.86 0 0 1 2.48 9.04 4.9 4.9 0 0 1-2.47.64 4.61 4.61 0 0 1-3.38-1.4 4.7 4.7 0 0 1-1.4-3.43c0-1.44.53-2.64 1.58-3.6a4.62 4.62 0 0 1 3.2-1.25zm.04 2.17c-.72 0-1.32.25-1.8.76-.47.5-.7 1.13-.7 1.9 0 .81.23 1.46.7 1.96s1.07.74 1.79.74 1.32-.25 1.8-.75.72-1.15.72-1.94c0-.8-.24-1.43-.71-1.92a2.37 2.37 0 0 0-1.8-.75zm5.71-1.94h2.26l1.85 5.24 2-5.24h1.38l1.96 5.18 1.85-5.18h2.28l-3.36 9.21h-1.47l-1.96-5.24-2.02 5.24h-1.45zm15.8-3.79c.4 0 .75.15 1.03.44.3.3.44.65.44 1.07 0 .41-.14.76-.43 1.06a1.4 1.4 0 0 1-1.03.43c-.41 0-.76-.15-1.06-.44a1.5 1.5 0 0 1-.43-1.08 1.46 1.46 0 0 1 1.47-1.48zm-1.17 3.8h2.32v9.2H68.6zm4.41 0h2.3v.93c.53-.44 1-.74 1.43-.91.43-.18.86-.26 1.3-.26.92 0 1.7.32 2.34.95.53.55.8 1.35.8 2.4v6.1H78.9V47.1c0-1.1-.06-1.84-.16-2.2-.1-.36-.26-.63-.51-.82a1.45 1.45 0 0 0-.9-.29c-.48 0-.88.16-1.22.48a2.5 2.5 0 0 0-.7 1.3c-.06.28-.1.9-.1 1.86v3.7h-2.3zm17.21 0h2.3v7.88c0 1.56-.31 2.7-.94 3.44-.84 1-2.1 1.49-3.8 1.49a6.5 6.5 0 0 1-2.27-.34 4.07 4.07 0 0 1-2.5-2.59h2.55a2 2 0 0 0 .87.58c.35.14.77.2 1.26.2.62 0 1.12-.09 1.5-.28.38-.2.64-.44.8-.75.15-.3.23-.83.23-1.57-.4.4-.83.7-1.28.88-.44.18-.95.26-1.51.26a4.16 4.16 0 0 1-3.13-1.33 4.7 4.7 0 0 1-1.28-3.39 4.7 4.7 0 0 1 1.35-3.52 4.04 4.04 0 0 1 4.43-.9c.47.19.95.5 1.42.95zm-2.4 1.92a2.4 2.4 0 0 0-1.8.73c-.47.49-.7 1.1-.7 1.84 0 .77.23 1.4.72 1.89.48.49 1.1.73 1.83.73.71 0 1.3-.24 1.77-.72.46-.48.7-1.1.7-1.88 0-.77-.24-1.4-.7-1.88a2.42 2.42 0 0 0-1.82-.71zM100 38.68h6.17V41h-3.83v2.26h3.83v2.28h-3.83v5.6H100zm7.49 3.24h1.98v1.16c.21-.45.5-.8.85-1.04a2.06 2.06 0 0 1 2.1-.12l-.71 2c-.27-.14-.5-.21-.67-.21-.36 0-.66.22-.9.66-.25.44-.37 1.3-.37 2.59v4.17h-2.28zm12.89 0h2.3v9.21h-2.3v-.97a3.82 3.82 0 0 1-2.84 1.21 4.11 4.11 0 0 1-3.09-1.38 4.84 4.84 0 0 1-1.3-3.44c0-1.43.42-2.6 1.26-3.5a4.02 4.02 0 0 1 4.62-1.05c.48.2.93.52 1.35.94zm-2.43 1.9c-.72 0-1.32.25-1.79.76-.47.5-.71 1.15-.71 1.94 0 .8.24 1.45.72 1.96.48.52 1.08.77 1.78.77a2.4 2.4 0 0 0 1.82-.75c.48-.5.72-1.17.72-1.99 0-.8-.24-1.45-.72-1.95a2.42 2.42 0 0 0-1.82-.74zm16.08-.03-1.92 1.05a3.24 3.24 0 0 0-1.08-.78 3.18 3.18 0 0 0-1.23-.22c-.87 0-1.57.26-2.1.78-.53.5-.8 1.17-.8 1.98 0 .78.26 1.42.77 1.92s1.19.74 2.02.74c1.04 0 1.84-.35 2.42-1.06l1.82 1.25a4.97 4.97 0 0 1-4.19 1.92 5.03 5.03 0 0 1-3.8-1.44 4.73 4.73 0 0 1-1.38-3.37 4.73 4.73 0 0 1 2.54-4.23 5.6 5.6 0 0 1 2.68-.64c.91 0 1.73.18 2.46.55.73.36 1.32.87 1.79 1.55zm2.36-5.26h2.3v3.4h1.37v1.98h-1.37v7.22h-2.3v-7.22h-1.19v-1.99h1.19zm5.82-.4c.4 0 .75.15 1.04.44.3.3.44.65.44 1.07 0 .41-.14.76-.43 1.06a1.4 1.4 0 0 1-1.03.43c-.41 0-.77-.15-1.06-.44a1.5 1.5 0 0 1-.43-1.08 1.46 1.46 0 0 1 1.47-1.48zm-1.16 3.8h2.32v9.2h-2.32zm8.74-.24a4.86 4.86 0 0 1 2.47 9.04 4.9 4.9 0 0 1-2.47.64 4.61 4.61 0 0 1-3.38-1.4 4.7 4.7 0 0 1-1.4-3.43c0-1.44.53-2.64 1.59-3.6a4.62 4.62 0 0 1 3.19-1.25zm.03 2.17c-.72 0-1.31.25-1.8.76-.47.5-.7 1.13-.7 1.9 0 .81.23 1.46.7 1.96s1.07.74 1.8.74c.71 0 1.31-.25 1.8-.75.47-.5.71-1.15.71-1.94 0-.8-.23-1.43-.7-1.92a2.37 2.37 0 0 0-1.81-.75zm6.74-1.94h2.3v.94c.52-.44 1-.74 1.42-.91a3.36 3.36 0 0 1 3.64.69c.54.55.8 1.35.8 2.4v6.1h-2.28V47.1c0-1.1-.05-1.84-.15-2.2a1.4 1.4 0 0 0-1.42-1.11c-.47 0-.88.16-1.22.48a2.5 2.5 0 0 0-.69 1.3c-.07.28-.1.9-.1 1.86v3.7h-2.3zm17.2 0h2.3v9.21h-2.3v-.97a3.82 3.82 0 0 1-2.84 1.21 4.1 4.1 0 0 1-3.08-1.38 4.84 4.84 0 0 1-1.3-3.44c0-1.43.42-2.6 1.26-3.5a4.02 4.02 0 0 1 4.62-1.05c.48.2.93.52 1.34.94zm-2.43 1.9c-.71 0-1.3.25-1.78.76a2.7 2.7 0 0 0-.71 1.94c0 .8.24 1.45.72 1.96.48.52 1.08.77 1.78.77a2.4 2.4 0 0 0 1.81-.75c.48-.5.72-1.17.72-1.99 0-.8-.24-1.45-.72-1.95a2.42 2.42 0 0 0-1.82-.74zm7.35-5.29h2.3v3.4h1.37v1.98h-1.37v7.22h-2.3v-7.22h-1.18v-1.99h1.18zm14.14 8.67h-7.42c.1.65.4 1.17.86 1.56.46.39 1.06.58 1.78.58.86 0 1.6-.3 2.23-.9l1.94.9a4.63 4.63 0 0 1-1.74 1.54 5.5 5.5 0 0 1-2.41.49 4.67 4.67 0 0 1-4.9-4.79c0-1.4.46-2.57 1.36-3.5.9-.93 2.05-1.4 3.41-1.4 1.45 0 2.63.47 3.54 1.4.9.93 1.36 2.15 1.36 3.68zm-2.32-1.82a2.31 2.31 0 0 0-.9-1.26 2.6 2.6 0 0 0-1.56-.48c-.64 0-1.2.18-1.7.54-.3.23-.58.63-.84 1.2zm11-7.01h2.3v12.76h-2.3v-.97a3.82 3.82 0 0 1-2.84 1.21 4.11 4.11 0 0 1-3.09-1.38 4.84 4.84 0 0 1-1.3-3.44c0-1.43.42-2.6 1.26-3.5a4.02 4.02 0 0 1 4.62-1.05c.49.2.94.52 1.35.94zm-2.43 5.45c-.72 0-1.31.25-1.79.76a2.7 2.7 0 0 0-.7 1.94c0 .8.23 1.45.71 1.96.49.52 1.08.77 1.79.77a2.4 2.4 0 0 0 1.8-.75c.49-.5.73-1.17.73-1.99 0-.8-.24-1.45-.72-1.95a2.42 2.42 0 0 0-1.82-.74zM21.1 56.02h2.32l2.87 8.68 2.92-8.68h2.29l2.1 12.45h-2.3l-1.33-7.87-2.65 7.87h-2.1l-2.6-7.87-1.37 7.87h-2.31zm18.47 3a4.86 4.86 0 0 1 2.47 9.05 4.9 4.9 0 0 1-2.47.63 4.61 4.61 0 0 1-3.38-1.4 4.7 4.7 0 0 1-1.4-3.43c0-1.44.53-2.64 1.58-3.6a4.62 4.62 0 0 1 3.2-1.25zm.03 2.18a2.4 2.4 0 0 0-1.8.75c-.47.5-.7 1.13-.7 1.91 0 .8.23 1.45.7 1.95s1.07.74 1.8.74c.71 0 1.31-.25 1.8-.75.47-.5.71-1.15.71-1.94s-.23-1.43-.7-1.92a2.37 2.37 0 0 0-1.81-.74zm6.2-1.94h1.98v1.16c.21-.46.5-.8.85-1.04a2.06 2.06 0 0 1 2.1-.12l-.71 1.99c-.27-.14-.5-.2-.67-.2-.36 0-.66.21-.9.65-.25.44-.37 1.3-.37 2.6v4.17H45.8zm11.72 1.28-1.43 1.43c-.58-.57-1.11-.86-1.59-.86a.98.98 0 0 0-.6.17.49.49 0 0 0-.23.4c0 .13.05.25.14.35.1.1.33.25.7.43l.84.42c.9.44 1.5.89 1.84 1.35.33.45.5.99.5 1.6 0 .82-.3 1.5-.9 2.05-.6.55-1.41.82-2.42.82a3.84 3.84 0 0 1-3.22-1.57l1.42-1.55c.27.32.6.57.95.77.37.2.7.29.98.29.3 0 .55-.08.73-.22.19-.15.28-.32.28-.51 0-.36-.33-.7-1-1.04l-.78-.39c-1.5-.75-2.24-1.69-2.24-2.82 0-.73.28-1.35.84-1.86a3.06 3.06 0 0 1 2.16-.78c.6 0 1.16.13 1.68.4.53.26.98.63 1.35 1.12zm11.21 3.99h-7.42c.1.65.4 1.18.85 1.57.47.38 1.07.57 1.79.57.86 0 1.6-.3 2.23-.9l1.94.91a4.63 4.63 0 0 1-1.74 1.53 5.5 5.5 0 0 1-2.41.5 4.67 4.67 0 0 1-4.9-4.79c0-1.41.46-2.58 1.36-3.5.9-.93 2.04-1.4 3.4-1.4 1.46 0 2.64.47 3.55 1.4.9.92 1.36 2.15 1.36 3.67zm-2.32-1.82a2.31 2.31 0 0 0-.9-1.25 2.6 2.6 0 0 0-1.56-.48c-.64 0-1.2.18-1.7.54-.3.22-.58.62-.84 1.2zm20.74-4.5-1.66 1.58A5.14 5.14 0 0 0 81.68 58a4.1 4.1 0 0 0-3.01 1.22 4.08 4.08 0 0 0-1.22 3c0 .84.18 1.57.54 2.22.36.64.87 1.15 1.53 1.51.66.37 1.4.55 2.2.55.7 0 1.32-.12 1.89-.38.57-.26 1.2-.73 1.88-1.4l1.6 1.67a8.9 8.9 0 0 1-2.6 1.87c-.82.35-1.75.52-2.8.52a6.47 6.47 0 0 1-4.76-1.84 6.4 6.4 0 0 1-1.84-4.72c0-1.24.28-2.34.84-3.3a6.83 6.83 0 0 1 5.8-3.2 7.08 7.08 0 0 1 5.43 2.5zm2.72-2.74c.4 0 .76.14 1.04.44.3.29.44.64.44 1.06 0 .41-.14.77-.43 1.06a1.4 1.4 0 0 1-1.03.43c-.41 0-.76-.14-1.06-.44a1.5 1.5 0 0 1-.43-1.08c0-.4.14-.75.43-1.04.29-.29.64-.43 1.04-.43zm-1.16 3.79h2.32v9.2h-2.32zm6.7 0v1.01c.42-.41.88-.73 1.36-.94.49-.2 1-.3 1.56-.3a4 4 0 0 1 3.06 1.35 4.96 4.96 0 0 1 1.26 3.5c0 1.37-.43 2.52-1.3 3.44a4.11 4.11 0 0 1-4.57 1.1c-.46-.19-.91-.5-1.36-.93v4.34h-2.3V59.26Zm2.44 1.9c-.73 0-1.34.24-1.82.74s-.72 1.14-.72 1.94c0 .82.24 1.49.72 2 .48.5 1.09.75 1.82.75.7 0 1.3-.26 1.77-.77.49-.52.73-1.17.73-1.97a2.7 2.7 0 0 0-.71-1.93 2.35 2.35 0 0 0-1.8-.77zm6.72-5.46h2.3v4.49c.45-.4.9-.68 1.36-.87.46-.2.92-.3 1.39-.3.91 0 1.68.32 2.3.95.54.55.81 1.35.81 2.41v6.09h-2.27v-4.04c0-1.07-.05-1.79-.16-2.17a1.5 1.5 0 0 0-.52-.84 1.44 1.44 0 0 0-.9-.28c-.47 0-.88.15-1.22.46-.33.31-.56.74-.7 1.27-.06.28-.1.91-.1 1.9v3.7h-2.29zm19.62 8.83h-7.42c.1.65.4 1.18.85 1.57.47.38 1.07.57 1.8.57.85 0 1.6-.3 2.22-.9l1.94.91a4.63 4.63 0 0 1-1.74 1.53 5.5 5.5 0 0 1-2.41.5 4.67 4.67 0 0 1-4.9-4.79c0-1.41.46-2.58 1.36-3.5.9-.93 2.05-1.4 3.41-1.4 1.45 0 2.63.47 3.54 1.4.9.92 1.36 2.15 1.36 3.67zm-2.32-1.82a2.31 2.31 0 0 0-.9-1.25 2.6 2.6 0 0 0-1.56-.48c-.64 0-1.2.18-1.7.54-.3.22-.58.62-.84 1.2zm3.65-3.45h1.98v1.16c.22-.46.5-.8.86-1.04a2.06 2.06 0 0 1 2.1-.12l-.72 1.99a1.5 1.5 0 0 0-.66-.2c-.36 0-.66.21-.91.65-.24.44-.36 1.3-.36 2.6v4.17h-2.29zm7.35 6.8c.36 0 .68.12.94.38.26.26.39.57.39.93 0 .37-.13.68-.4.94a1.29 1.29 0 0 1-1.87 0 1.28 1.28 0 0 1-.4-.94c0-.36.14-.67.4-.93s.57-.39.94-.39zm8.52-10.04h2.35v12.45h-2.35zm5.04-.16h2.3v3.4h1.38v1.99h-1.37v7.22h-2.3v-7.22h-1.19v-2h1.18zm10.68-.4c.4 0 .75.15 1.04.45.3.29.44.64.44 1.06 0 .41-.15.77-.43 1.06a1.4 1.4 0 0 1-1.04.43c-.4 0-.76-.14-1.05-.44a1.5 1.5 0 0 1-.44-1.08c0-.4.15-.75.44-1.04.28-.29.63-.43 1.04-.43zm-1.16 3.8h2.32v9.2h-2.32zm10.04 1.28-1.43 1.43c-.58-.57-1.1-.86-1.58-.86a.98.98 0 0 0-.6.17.49.49 0 0 0-.23.4c0 .13.05.25.14.35.1.1.32.25.7.43l.84.42c.89.44 1.5.89 1.83 1.35.34.45.5.99.5 1.6 0 .82-.3 1.5-.9 2.05-.6.55-1.4.82-2.41.82a3.84 3.84 0 0 1-3.22-1.57l1.42-1.55c.27.32.59.57.95.77.37.2.69.29.97.29.3 0 .55-.08.74-.22.18-.15.28-.32.28-.51 0-.36-.34-.7-1-1.04l-.79-.39c-1.49-.75-2.23-1.69-2.23-2.82 0-.73.28-1.35.84-1.86a3.06 3.06 0 0 1 2.15-.78c.6 0 1.16.13 1.69.4.53.26.98.63 1.34 1.12zm13.65-1.28h2.3v9.2h-2.3v-.97a3.82 3.82 0 0 1-2.84 1.21 4.11 4.11 0 0 1-3.09-1.38 4.84 4.84 0 0 1-1.3-3.44c0-1.42.42-2.59 1.26-3.5a4.02 4.02 0 0 1 4.62-1.05c.49.21.94.53 1.35.94zm-2.43 1.9c-.72 0-1.31.25-1.79.76a2.7 2.7 0 0 0-.7 1.93c0 .8.23 1.45.71 1.97.49.51 1.08.77 1.79.77a2.4 2.4 0 0 0 1.8-.76c.49-.5.73-1.17.73-1.99 0-.8-.24-1.45-.72-1.94a2.42 2.42 0 0 0-1.82-.75zm10.81-1.9h.83c0-1.21.02-1.92.05-2.14.07-.51.28-.91.64-1.2.37-.3.88-.45 1.55-.45.48 0 1.02.1 1.62.33v1.76a3.1 3.1 0 0 0-.82-.15c-.27 0-.47.06-.59.17-.1.09-.14.26-.14.53v1.15h1.46v1.96h-1.46v7.25h-2.31v-7.25h-.83zm5.7-3.56h2.32v12.77h-2.31zm11.21 3.56h2.3v9.2h-2.3v-.97a3.82 3.82 0 0 1-2.84 1.21 4.1 4.1 0 0 1-3.08-1.38 4.84 4.84 0 0 1-1.3-3.44c0-1.42.42-2.59 1.26-3.5a4.02 4.02 0 0 1 4.62-1.05c.48.21.93.53 1.34.94zm-2.42 1.9c-.72 0-1.32.25-1.79.76a2.7 2.7 0 0 0-.71 1.93c0 .8.24 1.45.72 1.97.48.51 1.08.77 1.78.77a2.4 2.4 0 0 0 1.82-.76c.47-.5.71-1.17.71-1.99 0-.8-.24-1.45-.71-1.94a2.42 2.42 0 0 0-1.82-.75zm6.07-1.9h2.36l2.32 5.43 2.32-5.43h2.35l-3.92 9.2h-1.5zm15.03-.24a4.86 4.86 0 0 1 2.47 9.05 4.9 4.9 0 0 1-2.47.63 4.61 4.61 0 0 1-3.38-1.4 4.7 4.7 0 0 1-1.4-3.43c0-1.44.53-2.64 1.58-3.6a4.62 4.62 0 0 1 3.2-1.25zm.03 2.18a2.4 2.4 0 0 0-1.8.75c-.47.5-.7 1.13-.7 1.91 0 .8.23 1.45.7 1.95s1.07.74 1.79.74 1.32-.25 1.8-.75.72-1.15.72-1.94-.23-1.43-.7-1.92a2.37 2.37 0 0 0-1.81-.74zm6.2-1.94h1.97v1.16c.22-.46.5-.8.86-1.04a2.06 2.06 0 0 1 2.1-.12l-.71 1.99c-.27-.14-.5-.2-.67-.2-.36 0-.66.21-.9.65-.25.44-.37 1.3-.37 2.6v4.17h-2.29ZM19.91 73.2h2.3v3.4h1.38v1.98h-1.38v7.22h-2.3v-7.22h-1.18v-1.99h1.18zm14.14 8.66h-7.42c.1.66.4 1.18.86 1.57.47.38 1.06.57 1.78.57.87 0 1.6-.3 2.23-.9l1.95.91a4.63 4.63 0 0 1-1.75 1.54 5.5 5.5 0 0 1-2.41.49 4.67 4.67 0 0 1-4.9-4.79c0-1.4.46-2.57 1.36-3.5a4.58 4.58 0 0 1 3.41-1.4c1.45 0 2.63.47 3.54 1.4.9.93 1.36 2.15 1.36 3.67zm-2.31-1.82a2.31 2.31 0 0 0-.91-1.25 2.6 2.6 0 0 0-1.56-.48c-.64 0-1.2.18-1.69.54-.3.23-.59.62-.85 1.2zm3.36-3.45h2.68l1.8 2.51 1.83-2.5h2.66l-3.15 4.35 3.54 4.85h-2.69l-2.19-3.02-2.17 3.02h-2.64l3.48-4.85zm10.81-3.4h2.3v3.4h1.37v1.99h-1.37v7.22h-2.3v-7.22h-1.18v-1.99h1.18zm8.67 3.4h.82a20 20 0 0 1 .06-2.14c.06-.5.27-.9.63-1.2.37-.3.89-.45 1.55-.45.48 0 1.02.1 1.63.33v1.76a3.1 3.1 0 0 0-.82-.14c-.27 0-.47.05-.6.17-.09.08-.13.25-.13.52l-.01 1.15h1.46v1.96h-1.46v7.25H55.4v-7.25h-.82zm5.4 0h1.99v1.16c.21-.46.5-.8.85-1.04a2.06 2.06 0 0 1 2.1-.12l-.71 1.99c-.27-.14-.5-.2-.67-.2-.35 0-.66.22-.9.66-.25.44-.37 1.3-.37 2.59l.01.45v3.72h-2.3zm10.42-.24a4.86 4.86 0 0 1 2.47 9.05 4.9 4.9 0 0 1-2.46.64 4.61 4.61 0 0 1-3.39-1.4 4.7 4.7 0 0 1-1.4-3.44c0-1.44.53-2.63 1.59-3.6a4.62 4.62 0 0 1 3.19-1.25zm.03 2.18a2.4 2.4 0 0 0-1.8.75c-.47.5-.7 1.14-.7 1.92 0 .8.23 1.45.7 1.94.47.5 1.07.75 1.8.75.71 0 1.32-.25 1.8-.76.47-.5.71-1.15.71-1.93 0-.8-.23-1.44-.7-1.93a2.37 2.37 0 0 0-1.8-.74zm6.72-1.94h2.32v1.06c.4-.44.83-.76 1.31-.97a3.87 3.87 0 0 1 1.58-.33 2.93 2.93 0 0 1 2.68 1.66c.37-.54.81-.95 1.34-1.23a3.7 3.7 0 0 1 3.48.03c.5.3.85.7 1.07 1.2.22.49.33 1.28.33 2.39v5.4h-2.33v-4.67c0-1.05-.13-1.75-.39-2.12a1.34 1.34 0 0 0-1.17-.56c-.39 0-.75.12-1.06.34a2.1 2.1 0 0 0-.7.94c-.15.4-.22 1.03-.22 1.91v4.16h-2.33v-4.46c0-.82-.06-1.42-.19-1.79a1.6 1.6 0 0 0-.54-.83 1.43 1.43 0 0 0-.88-.27c-.38 0-.73.12-1.05.35-.31.23-.54.54-.7.96a6.05 6.05 0 0 0-.23 1.94v4.1h-2.32zm27.96 0h2.3v9.2h-2.3v-.96a3.82 3.82 0 0 1-2.84 1.21 4.1 4.1 0 0 1-3.08-1.38 4.84 4.84 0 0 1-1.3-3.45c0-1.42.42-2.59 1.26-3.5a4.02 4.02 0 0 1 4.62-1.04c.48.2.93.52 1.34.94zm-2.42 1.9c-.72 0-1.32.25-1.8.76a2.7 2.7 0 0 0-.7 1.94c0 .8.24 1.45.72 1.96s1.08.77 1.78.77a2.4 2.4 0 0 0 1.81-.75c.48-.51.72-1.17.72-2 0-.8-.24-1.44-.72-1.94a2.42 2.42 0 0 0-1.81-.74zm11.9-1.9h2.31v1.06a3.87 3.87 0 0 1 2.9-1.3 2.93 2.93 0 0 1 2.67 1.66 3.7 3.7 0 0 1 4.82-1.2c.5.3.86.7 1.07 1.2.22.49.33 1.28.33 2.39v5.4h-2.32v-4.67c0-1.05-.13-1.75-.4-2.12-.25-.37-.64-.56-1.16-.56-.4 0-.75.12-1.07.34-.3.23-.54.54-.7.94-.14.4-.22 1.03-.22 1.91v4.16h-2.33v-4.46c0-.82-.06-1.42-.18-1.79a1.6 1.6 0 0 0-.55-.83 1.43 1.43 0 0 0-.88-.27c-.38 0-.73.12-1.05.35-.3.23-.54.54-.7.96a6.05 6.05 0 0 0-.23 1.94v4.1h-2.32zm20.63-.24a4.86 4.86 0 0 1 2.47 9.05 4.9 4.9 0 0 1-2.46.64 4.61 4.61 0 0 1-3.39-1.4 4.7 4.7 0 0 1-1.4-3.44c0-1.44.53-2.63 1.59-3.6a4.62 4.62 0 0 1 3.19-1.25zm.03 2.18c-.71 0-1.31.25-1.8.75-.47.5-.7 1.14-.7 1.92 0 .8.23 1.45.7 1.94.47.5 1.07.75 1.8.75.72 0 1.32-.25 1.8-.76.48-.5.72-1.15.72-1.93 0-.8-.24-1.44-.71-1.93a2.37 2.37 0 0 0-1.8-.74zm13.54-5.5h2.3V85.8h-2.3v-.97a3.82 3.82 0 0 1-2.84 1.21 4.1 4.1 0 0 1-3.08-1.38 4.84 4.84 0 0 1-1.3-3.45c0-1.42.42-2.59 1.26-3.5a4.02 4.02 0 0 1 4.62-1.04c.48.2.93.52 1.34.94zm-2.42 5.46c-.72 0-1.32.25-1.79.76a2.7 2.7 0 0 0-.71 1.94c0 .8.24 1.45.72 1.96s1.08.77 1.78.77a2.4 2.4 0 0 0 1.82-.75c.47-.51.71-1.17.71-2 0-.8-.24-1.44-.71-1.94a2.42 2.42 0 0 0-1.82-.74zm13.87-5.45h2.3V85.8h-2.3v-.97a3.82 3.82 0 0 1-2.84 1.21 4.11 4.11 0 0 1-3.09-1.38 4.84 4.84 0 0 1-1.3-3.45c0-1.42.42-2.59 1.26-3.5a4.02 4.02 0 0 1 4.62-1.04c.49.2.94.52 1.35.94zm-2.43 5.45c-.72 0-1.31.25-1.79.76a2.7 2.7 0 0 0-.7 1.94c0 .8.23 1.45.71 1.96.49.51 1.08.77 1.79.77a2.4 2.4 0 0 0 1.8-.75c.49-.51.73-1.17.73-2 0-.8-.24-1.44-.72-1.94a2.42 2.42 0 0 0-1.82-.74zm16.29 3.37h-7.42c.1.66.39 1.18.85 1.57.47.38 1.07.57 1.79.57.86 0 1.6-.3 2.22-.9l1.95.91a4.63 4.63 0 0 1-1.74 1.54 5.5 5.5 0 0 1-2.41.49 4.67 4.67 0 0 1-4.9-4.79c0-1.4.45-2.57 1.36-3.5.9-.93 2.04-1.4 3.4-1.4 1.46 0 2.64.47 3.55 1.4.9.93 1.36 2.15 1.36 3.67zm-2.32-1.82a2.31 2.31 0 0 0-.9-1.25 2.6 2.6 0 0 0-1.56-.48c-.64 0-1.2.18-1.7.54-.3.23-.58.62-.84 1.2zm11-7h2.3V85.8h-2.3v-.97a3.82 3.82 0 0 1-2.84 1.21 4.11 4.11 0 0 1-3.09-1.38 4.84 4.84 0 0 1-1.3-3.45c0-1.42.42-2.59 1.26-3.5a4.02 4.02 0 0 1 4.62-1.04c.49.2.93.52 1.35.94zm-2.43 5.45c-.72 0-1.32.25-1.79.76a2.7 2.7 0 0 0-.71 1.94c0 .8.24 1.45.72 1.96s1.08.77 1.78.77a2.4 2.4 0 0 0 1.82-.75c.48-.51.72-1.17.72-2 0-.8-.24-1.44-.72-1.94a2.42 2.42 0 0 0-1.82-.74zm12.18-5.14h2.4v4.28l3.38-4.28h2.85l-4.35 5.55 4.77 6.9h-2.8l-3.85-5.53v5.53h-2.4zm9.5 0h6.89v2.34h-2.27v10.1h-2.4V75.7h-2.21zm12.3 0h2.41l4.79 12.45h-2.46l-.98-2.57h-5.07L212 85.8h-2.46zm1.22 3.3-1.65 4.27h3.3zm7.83-3.3h2.26l5.34 8.2v-8.2h2.37V85.8h-2.27l-5.34-8.17v8.17h-2.36zm12.82 0h6.8v2.32h-4.45v2.25H243v2.28h-4.44v3.27H243v2.33h-6.8zM19.63 93.92h2.31v1.06a3.87 3.87 0 0 1 2.9-1.3 2.93 2.93 0 0 1 2.67 1.67 3.7 3.7 0 0 1 4.82-1.2c.5.3.86.7 1.07 1.19.22.49.33 1.29.33 2.4v5.4h-2.32v-4.68c0-1.04-.13-1.75-.4-2.12-.25-.37-.64-.55-1.16-.55-.4 0-.75.1-1.07.33-.3.23-.54.54-.7.94-.14.4-.22 1.04-.22 1.92v4.15h-2.33v-4.46c0-.82-.06-1.42-.18-1.78a1.6 1.6 0 0 0-.54-.83 1.43 1.43 0 0 0-.88-.27c-.39 0-.74.11-1.05.34-.31.23-.55.55-.7.96a6.05 6.05 0 0 0-.24 1.95v4.1h-2.31zm20.63-.23a4.86 4.86 0 0 1 2.47 9.04 4.9 4.9 0 0 1-2.46.64 4.61 4.61 0 0 1-3.39-1.4 4.7 4.7 0 0 1-1.4-3.43c0-1.44.53-2.64 1.59-3.6a4.62 4.62 0 0 1 3.19-1.25zm.03 2.17a2.4 2.4 0 0 0-1.8.76 2.7 2.7 0 0 0-.7 1.9c0 .81.23 1.46.7 1.95.47.5 1.07.75 1.8.75.72 0 1.32-.25 1.8-.75s.72-1.15.72-1.94c0-.8-.24-1.43-.71-1.92a2.37 2.37 0 0 0-1.8-.75zm13.55-5.49h2.3v12.76h-2.3v-.97a3.82 3.82 0 0 1-2.84 1.21 4.1 4.1 0 0 1-3.09-1.38 4.84 4.84 0 0 1-1.3-3.44c0-1.43.42-2.6 1.26-3.5A4.02 4.02 0 0 1 52.49 94c.48.2.93.52 1.35.94zm-2.43 5.45c-.72 0-1.32.25-1.79.76a2.7 2.7 0 0 0-.71 1.94c0 .8.24 1.45.72 1.96.48.52 1.08.77 1.78.77a2.4 2.4 0 0 0 1.82-.75c.48-.5.72-1.17.72-1.99 0-.8-.24-1.45-.72-1.95a2.42 2.42 0 0 0-1.82-.74zm7.05-1.9h2.34v4.44c0 .86.06 1.46.18 1.8a1.52 1.52 0 0 0 1.54 1.06c.38 0 .7-.1.97-.27.27-.19.47-.46.6-.81.1-.27.15-.84.15-1.7v-4.52h2.32v3.9c0 1.61-.13 2.71-.38 3.3a3.63 3.63 0 0 1-1.38 1.67c-.6.39-1.37.58-2.3.58a4.1 4.1 0 0 1-2.45-.68 3.59 3.59 0 0 1-1.31-1.88 11.4 11.4 0 0 1-.28-3.05zm10.17-3.55h2.31v12.76h-2.31Zm13.63 8.83h-7.43c.11.65.4 1.17.86 1.56.47.39 1.06.58 1.78.58.87 0 1.6-.3 2.23-.9l1.95.9a4.63 4.63 0 0 1-1.75 1.54 5.5 5.5 0 0 1-2.4.49 4.67 4.67 0 0 1-4.9-4.79c0-1.4.45-2.57 1.35-3.5a4.58 4.58 0 0 1 3.41-1.4c1.45 0 2.63.47 3.54 1.4a5.02 5.02 0 0 1 1.36 3.68zm-2.32-1.82a2.31 2.31 0 0 0-.9-1.26 2.6 2.6 0 0 0-1.57-.48c-.64 0-1.2.18-1.69.54-.3.23-.59.63-.85 1.2zm5.45 3.34c.36 0 .68.13.94.39.26.25.39.56.39.93s-.13.68-.4.94c-.25.26-.57.39-.93.39-.37 0-.68-.13-.94-.39a1.28 1.28 0 0 1-.4-.94c0-.37.14-.68.4-.93.26-.26.57-.39.94-.39zm7.46-10.04h6.88v2.34h-2.27v10.11h-2.4V93.02h-2.2zm8.26-.31h2.3v4.49c.45-.4.9-.68 1.36-.88.46-.2.92-.3 1.39-.3.91 0 1.68.32 2.3.96.54.54.81 1.35.81 2.4v6.1H107V99.1c0-1.07-.05-1.8-.15-2.17a1.5 1.5 0 0 0-.52-.85 1.44 1.44 0 0 0-.9-.28c-.48 0-.88.16-1.22.47-.33.3-.56.73-.7 1.27-.06.27-.1.9-.1 1.9v3.7h-2.29zm19.62 8.83h-7.42c.1.65.4 1.17.85 1.56.47.39 1.07.58 1.79.58.86 0 1.6-.3 2.22-.9l1.95.9a4.63 4.63 0 0 1-1.74 1.54 5.5 5.5 0 0 1-2.41.49 4.67 4.67 0 0 1-4.9-4.79c0-1.4.46-2.57 1.36-3.5.9-.93 2.04-1.4 3.4-1.4 1.46 0 2.64.47 3.55 1.4.9.93 1.36 2.15 1.36 3.68zm-2.32-1.82a2.31 2.31 0 0 0-.9-1.26 2.6 2.6 0 0 0-1.56-.48c-.64 0-1.2.18-1.7.54-.3.23-.58.63-.84 1.2zm8.8-7.01h2.3v12.76h-2.3zm11.2 3.55h2.3v9.21h-2.3v-.97a3.82 3.82 0 0 1-2.84 1.21 4.1 4.1 0 0 1-3.08-1.38 4.84 4.84 0 0 1-1.3-3.44c0-1.43.41-2.6 1.25-3.5a4.02 4.02 0 0 1 4.63-1.05c.48.2.93.52 1.34.94zm-2.43 1.9c-.71 0-1.31.25-1.78.76a2.7 2.7 0 0 0-.71 1.94c0 .8.24 1.45.71 1.96.49.52 1.09.77 1.8.77a2.4 2.4 0 0 0 1.8-.75c.48-.5.72-1.17.72-1.99 0-.8-.24-1.45-.72-1.95a2.42 2.42 0 0 0-1.82-.74zm12.7-.6-1.42 1.42c-.59-.57-1.11-.86-1.59-.86a.98.98 0 0 0-.6.17.49.49 0 0 0-.23.4c0 .13.05.24.14.35.1.1.33.24.7.42l.84.43c.9.44 1.5.89 1.84 1.34.33.46.5 1 .5 1.61 0 .82-.3 1.5-.91 2.05-.6.55-1.4.82-2.41.82a3.84 3.84 0 0 1-3.22-1.57l1.42-1.55c.27.31.59.57.95.77.37.19.7.28.97.28.3 0 .55-.07.74-.22.19-.14.28-.31.28-.5 0-.36-.34-.7-1-1.04l-.79-.4c-1.49-.74-2.23-1.68-2.23-2.81 0-.73.28-1.35.84-1.86a3.06 3.06 0 0 1 2.16-.78c.6 0 1.16.13 1.68.4.53.25.98.63 1.35 1.12zm2.27-4.69h2.3v3.4h1.38v1.98h-1.37v7.22h-2.3v-7.22h-1.2v-1.99h1.2zm10.05 0h2.3v3.4h1.37v1.98h-1.37v7.22H161v-7.22h-1.18v-1.99H161zm3.9 3.4h2.25l1.86 5.23 2-5.24h1.37l1.96 5.18 1.85-5.18h2.28l-3.36 9.21h-1.47l-1.96-5.24-2.02 5.24h-1.45zm19.2-.24a4.86 4.86 0 0 1 2.48 9.04 4.9 4.9 0 0 1-2.47.64 4.61 4.61 0 0 1-3.38-1.4 4.7 4.7 0 0 1-1.4-3.43c0-1.44.53-2.64 1.59-3.6a4.62 4.62 0 0 1 3.19-1.25zm.04 2.17c-.72 0-1.31.25-1.8.76-.47.5-.7 1.13-.7 1.9 0 .81.23 1.46.7 1.95.47.5 1.07.75 1.8.75.71 0 1.31-.25 1.8-.75.47-.5.71-1.15.71-1.94 0-.8-.23-1.43-.7-1.92a2.37 2.37 0 0 0-1.81-.75zm10.56-1.94h2.26l1.86 5.24 2-5.24h1.37l1.96 5.18 1.85-5.18h2.28l-3.36 9.21h-1.47l-1.96-5.24-2.02 5.24h-1.45zm19.21-.23a4.86 4.86 0 0 1 2.48 9.04 4.9 4.9 0 0 1-2.47.64 4.61 4.61 0 0 1-3.38-1.4 4.7 4.7 0 0 1-1.4-3.43c0-1.44.53-2.64 1.58-3.6a4.62 4.62 0 0 1 3.2-1.25zm.04 2.17c-.72 0-1.32.25-1.8.76-.47.5-.7 1.13-.7 1.9 0 .81.23 1.46.7 1.95.47.5 1.07.75 1.79.75s1.32-.25 1.8-.75.72-1.15.72-1.94c0-.8-.24-1.43-.7-1.92a2.37 2.37 0 0 0-1.81-.75zm6.2-1.94h1.97v1.16c.22-.45.5-.8.86-1.04a2.06 2.06 0 0 1 2.1-.12l-.71 2c-.27-.14-.5-.21-.67-.21-.36 0-.66.22-.9.66-.25.44-.37 1.3-.37 2.59v4.17h-2.29zm12.88-3.55h2.3v12.76h-2.3v-.97a3.82 3.82 0 0 1-2.84 1.21 4.1 4.1 0 0 1-3.08-1.38 4.84 4.84 0 0 1-1.3-3.44c0-1.43.42-2.6 1.26-3.5a4.02 4.02 0 0 1 4.62-1.05c.48.2.93.52 1.34.94zm-2.43 5.45c-.71 0-1.3.25-1.78.76a2.7 2.7 0 0 0-.71 1.94c0 .8.24 1.45.72 1.96.48.52 1.08.77 1.78.77a2.4 2.4 0 0 0 1.81-.75c.48-.5.72-1.17.72-1.99 0-.8-.24-1.45-.72-1.95a2.42 2.42 0 0 0-1.82-.74zm12.7-.6-1.42 1.42c-.58-.57-1.11-.86-1.58-.86a.98.98 0 0 0-.61.17.49.49 0 0 0-.22.4c0 .13.04.24.13.35.1.1.33.24.7.42l.84.43c.9.44 1.5.89 1.84 1.34.33.46.5 1 .5 1.61 0 .82-.3 1.5-.9 2.05-.6.55-1.41.82-2.42.82a3.84 3.84 0 0 1-3.22-1.57l1.43-1.55c.27.31.58.57.94.77.37.19.7.28.98.28.3 0 .55-.07.73-.22.19-.14.28-.31.28-.5 0-.36-.33-.7-1-1.04l-.78-.4c-1.5-.74-2.24-1.68-2.24-2.81 0-.73.28-1.35.84-1.86a3.06 3.06 0 0 1 2.16-.78c.6 0 1.16.13 1.68.4.53.25.98.63 1.35 1.12zM26.46 111.25h2.3v9.2h-2.3v-.97a3.82 3.82 0 0 1-2.84 1.21 4.11 4.11 0 0 1-3.09-1.38 4.84 4.84 0 0 1-1.3-3.44c0-1.42.42-2.59 1.26-3.5a4.02 4.02 0 0 1 4.62-1.05c.49.21.94.53 1.35.94zm-2.43 1.9c-.72 0-1.31.25-1.79.76a2.7 2.7 0 0 0-.7 1.93c0 .8.23 1.45.71 1.97.49.51 1.08.77 1.79.77a2.4 2.4 0 0 0 1.8-.76c.49-.5.73-1.17.73-1.99 0-.8-.24-1.45-.72-1.94a2.42 2.42 0 0 0-1.82-.75zm6.52-1.9h1.98v1.16c.22-.46.5-.8.86-1.04a2.06 2.06 0 0 1 2.1-.12l-.71 1.99c-.27-.14-.5-.2-.67-.2-.36 0-.66.21-.9.65-.25.44-.37 1.3-.37 2.6v4.17h-2.29zm15.31 5.27h-7.42c.1.65.4 1.18.86 1.57.46.38 1.06.57 1.78.57.87 0 1.6-.3 2.23-.9l1.94.91a4.63 4.63 0 0 1-1.74 1.53 5.5 5.5 0 0 1-2.41.5 4.67 4.67 0 0 1-4.9-4.79c0-1.41.46-2.58 1.36-3.5a4.58 4.58 0 0 1 3.41-1.4c1.45 0 2.63.47 3.54 1.4.9.92 1.36 2.15 1.36 3.67zm-2.31-1.82a2.31 2.31 0 0 0-.91-1.25 2.6 2.6 0 0 0-1.56-.48c-.64 0-1.2.18-1.69.54-.3.22-.59.62-.85 1.2zm11.38-2.26H52.8v-1.18c0-.73.09-1.37.27-1.9.18-.55.5-1.1.93-1.67l.83.65a4.8 4.8 0 0 0-.76 1.67h.86zm3.45 0h-2.13v-1.18c0-.73.09-1.37.27-1.9.18-.55.5-1.1.93-1.67l.83.65a4.7 4.7 0 0 0-.75 1.67h.85zm2.79-4.43h2.26l5.34 8.19V108h2.37v12.46h-2.27l-5.33-8.17v8.17h-2.37zm18.7-.32c1.75 0 3.26.64 4.53 1.92a6.36 6.36 0 0 1 1.9 4.66c0 1.82-.62 3.35-1.88 4.61a6.16 6.16 0 0 1-4.54 1.89 6.17 6.17 0 0 1-4.66-1.94 6.43 6.43 0 0 1-1.85-4.6 6.46 6.46 0 0 1 6.5-6.54zm-.03 2.32a3.9 3.9 0 0 0-2.9 1.2 4.19 4.19 0 0 0-1.18 3.06 4.1 4.1 0 0 0 4.12 4.21 4.14 4.14 0 0 0 4.05-4.22c0-1.2-.4-2.2-1.19-3.01a3.88 3.88 0 0 0-2.9-1.24zm20.07-.31-1.75 1.55c-.61-.86-1.24-1.29-1.88-1.29-.3 0-.56.09-.76.25-.2.17-.3.35-.3.56 0 .21.07.41.22.6.19.24.77.78 1.73 1.6.9.75 1.45 1.23 1.64 1.43.48.48.82.95 1.02 1.4.2.43.3.91.3 1.44 0 1.02-.35 1.86-1.06 2.53-.7.67-1.62 1-2.75 1-.9 0-1.66-.22-2.32-.65a5.16 5.16 0 0 1-1.69-2.05l2-1.2c.59 1.1 1.28 1.65 2.06 1.65.4 0 .74-.12 1.02-.36.28-.23.41-.5.41-.82 0-.28-.1-.56-.3-.85-.22-.28-.68-.7-1.39-1.29a14.03 14.03 0 0 1-2.62-2.56c-.4-.6-.6-1.2-.6-1.8 0-.86.33-1.6.99-2.22a3.42 3.42 0 0 1 2.44-.93c.62 0 1.2.15 1.76.43.57.3 1.18.82 1.83 1.58zm2.5-1.7h6.8v2.32h-4.45v2.26h4.45v2.27h-4.45v3.28h4.45v2.33h-6.8zm9.01 0h2.27l5.34 8.2V108h2.37v12.46h-2.28l-5.33-8.17v8.17h-2.37zm19.34 1.7-1.75 1.55c-.62-.86-1.24-1.29-1.88-1.29-.3 0-.56.09-.76.25-.2.17-.3.35-.3.56a1 1 0 0 0 .21.6c.2.24.77.78 1.74 1.6.9.75 1.45 1.23 1.64 1.43.48.48.82.95 1.02 1.4.2.43.3.91.3 1.44 0 1.02-.35 1.86-1.06 2.53-.7.67-1.62 1-2.76 1-.88 0-1.65-.22-2.31-.65a5.16 5.16 0 0 1-1.69-2.05l2-1.2c.59 1.1 1.28 1.65 2.06 1.65.4 0 .74-.12 1.02-.36.28-.23.41-.5.41-.82 0-.28-.1-.56-.3-.85-.22-.28-.68-.7-1.39-1.29a14.03 14.03 0 0 1-2.62-2.56c-.4-.6-.6-1.2-.6-1.8 0-.86.33-1.6.99-2.22a3.42 3.42 0 0 1 2.43-.93c.63 0 1.22.15 1.77.43.57.3 1.18.82 1.83 1.58zm2.5-1.7h6.8v2.32h-4.45v2.26h4.44v2.27h-4.44v3.28h4.44v2.33h-6.8zm12.39-.3h2.13v1.16c0 .75-.1 1.39-.28 1.92-.18.54-.49 1.1-.93 1.66l-.82-.65c.2-.3.36-.57.46-.79.1-.22.2-.52.29-.89h-.85zm-3.45 0h2.13v1.16c0 .75-.1 1.39-.28 1.92a5.86 5.86 0 0 1-.92 1.66l-.83-.65a4.97 4.97 0 0 0 .75-1.68h-.85zm9.4 10.34c.36 0 .67.13.93.4.26.25.39.56.39.92 0 .37-.13.68-.39.94-.26.26-.57.4-.94.4s-.68-.14-.94-.4a1.28 1.28 0 0 1-.39-.94c0-.36.13-.67.4-.93.25-.26.56-.39.93-.39zM23.7 142.67h2.4l4.8 12.45h-2.47l-.97-2.56h-5.08l-1.02 2.56H18.9zm1.22 3.3-1.66 4.28h3.3zm14.33-1.6-1.75 1.54c-.61-.85-1.24-1.28-1.88-1.28-.3 0-.56.08-.76.25-.2.17-.3.35-.3.56 0 .2.08.4.22.6.19.24.77.77 1.73 1.6.9.75 1.45 1.23 1.64 1.42.48.49.82.95 1.02 1.4.2.44.3.92.3 1.45 0 1.02-.35 1.86-1.05 2.53-.7.66-1.63 1-2.76 1-.89 0-1.66-.22-2.32-.66a5.16 5.16 0 0 1-1.69-2.04l2-1.2c.6 1.1 1.28 1.64 2.06 1.64.4 0 .75-.11 1.02-.35.28-.24.42-.51.42-.82 0-.28-.1-.57-.32-.85-.2-.28-.67-.71-1.38-1.3a14.03 14.03 0 0 1-2.62-2.55 2.96 2.96 0 0 1 .39-4.02 3.42 3.42 0 0 1 2.44-.93c.62 0 1.2.14 1.77.43.56.29 1.17.81 1.82 1.58zm2.5 10.75v-12.45h1.95c1.13 0 1.96.08 2.49.22.74.2 1.33.57 1.77 1.1.44.54.66 1.17.66 1.9 0 .47-.1.9-.3 1.3-.2.38-.52.74-.97 1.08.75.35 1.3.8 1.65 1.33.35.53.53 1.16.53 1.9 0 .7-.18 1.33-.54 1.9a3.49 3.49 0 0 1-1.4 1.3 5.4 5.4 0 0 1-2.36.42zm2.36-10.19v2.63h.52c.57 0 1-.13 1.28-.37s.42-.57.42-.99c0-.39-.13-.7-.4-.92-.26-.23-.67-.35-1.2-.35zm0 4.74v3.2h.6c.98 0 1.64-.13 1.98-.38.34-.25.51-.6.51-1.08 0-.54-.2-.96-.6-1.27-.4-.31-1.07-.47-2-.47zm7.72-7H58V145h-3.83v2.26H58v2.28h-3.83v5.6h-2.35Zm7.63 0h7.53l-4.44 10.18h4.15v2.27h-7.6l4.42-10.1h-4.06zm20 10.63 2.17 2.8h-2.8l-1.1-1.4c-.92.49-1.93.74-3.05.74a6.18 6.18 0 0 1-4.65-1.93 6.44 6.44 0 0 1-1.86-4.62 6.42 6.42 0 0 1 3.24-5.65 6.36 6.36 0 0 1 7.8 1.03 6.36 6.36 0 0 1 1.9 4.67 6.3 6.3 0 0 1-1.65 4.36zm-1.48-1.91c.5-.74.76-1.57.76-2.47 0-1.18-.4-2.18-1.2-3a3.86 3.86 0 0 0-2.88-1.24 3.9 3.9 0 0 0-2.92 1.2 4.19 4.19 0 0 0-1.18 3.06 4.07 4.07 0 0 0 5.7 3.88l-2.22-2.88h2.83zm5.2-8.72h2.34v12.45h-2.35zm5.02 0H91c1.82 0 3.17.23 4.05.68.88.45 1.6 1.17 2.17 2.18.57 1.01.86 2.2.86 3.54a7.1 7.1 0 0 1-.49 2.65 5.3 5.3 0 0 1-1.32 2c-.56.53-1.16.9-1.82 1.1a13 13 0 0 1-3.4.3H88.2zm2.36 2.29v7.84h1.1c1.08 0 1.87-.12 2.35-.37.5-.25.9-.66 1.2-1.25a4.5 4.5 0 0 0 .47-2.17c0-1.32-.37-2.34-1.1-3.07-.67-.66-1.74-.98-3.22-.98zm12.86-2.29h2.38v8.26c0 1.32-.1 2.24-.31 2.77-.2.53-.55.95-1.03 1.27a3.1 3.1 0 0 1-1.73.47c-1.37 0-2.54-.6-3.5-1.8l1.7-1.6c.38.42.7.71.97.86.27.14.52.22.77.22.26 0 .44-.11.57-.33.12-.2.18-.68.18-1.4zm9.02 0h2.4l4.8 12.45h-2.47l-.97-2.56h-5.08l-1.02 2.56h-2.46zm1.22 3.3-1.66 4.28h3.3zm9.01-3.3h2.32l2.88 8.69 2.92-8.69h2.28l2.1 12.45h-2.28l-1.34-7.86-2.65 7.86h-2.1l-2.6-7.86-1.37 7.86h-2.3zm14.4 12.45v-12.45H139c1.14 0 1.97.08 2.49.22.75.2 1.34.57 1.78 1.1.44.54.66 1.17.66 1.9 0 .47-.1.9-.3 1.3-.2.38-.53.74-.98 1.08.76.35 1.3.8 1.66 1.33.35.53.52 1.16.52 1.9 0 .7-.18 1.33-.54 1.9a3.43 3.43 0 0 1-1.4 1.3 5.4 5.4 0 0 1-2.36.42zm2.37-10.19v2.63h.51c.58 0 1-.13 1.28-.37s.42-.57.42-.99c0-.39-.13-.7-.4-.92-.26-.23-.66-.35-1.2-.35zm0 4.74v3.2h.59c.98 0 1.64-.13 1.98-.38.34-.25.52-.6.52-1.08 0-.54-.2-.96-.6-1.27-.4-.31-1.07-.47-2-.47zm7.51-7h2.36v12.45h-2.36zm4.07 0h2.34l1.8 7.95 2.22-7.95h1.97l2.25 7.95 1.78-7.95h2.34l-2.8 12.45h-2.28l-2.3-8.05-2.25 8.05h-2.25zm16.56 0h6.8V145h-4.45v2.25h4.44v2.28h-4.44v3.27h4.44v2.33h-6.8zm9 12.45v-12.45h1.96c1.13 0 1.96.08 2.49.22.74.2 1.33.57 1.77 1.1.44.54.66 1.17.66 1.9 0 .47-.1.9-.3 1.3-.2.38-.52.74-.97 1.08.75.35 1.3.8 1.65 1.33.35.53.53 1.16.53 1.9 0 .7-.18 1.33-.54 1.9a3.49 3.49 0 0 1-1.4 1.3 5.4 5.4 0 0 1-2.36.42zm2.37-10.19v2.63h.52c.57 0 1-.13 1.28-.37s.42-.57.42-.99c0-.39-.13-.7-.4-.92-.26-.23-.67-.35-1.2-.35zm0 4.74v3.2h.6c.98 0 1.64-.13 1.98-.38.34-.25.51-.6.51-1.08 0-.54-.2-.96-.6-1.27-.4-.31-1.07-.47-2-.47zm13.57-7.31a6.2 6.2 0 0 1 4.54 1.91 6.36 6.36 0 0 1 1.9 4.67c0 1.81-.63 3.35-1.88 4.6a6.16 6.16 0 0 1-4.54 1.9 6.17 6.17 0 0 1-4.66-1.94 6.43 6.43 0 0 1-1.85-4.6 6.46 6.46 0 0 1 6.49-6.54zm-.03 2.32a3.9 3.9 0 0 0-2.9 1.2 4.19 4.19 0 0 0-1.17 3.06c0 1.37.49 2.46 1.48 3.26.76.63 1.64.94 2.64.94a4.14 4.14 0 0 0 4.05-4.22 4.1 4.1 0 0 0-1.2-3 3.88 3.88 0 0 0-2.9-1.24zm8.05-2h7.53l-4.45 10.17h4.16v2.27h-7.6l4.42-10.1h-4.06zm9.33 0h2.27l5.34 8.19v-8.2h2.37v12.45h-2.28l-5.33-8.16v8.16h-2.37zm18.7-.32c1.76 0 3.27.64 4.53 1.91a6.36 6.36 0 0 1 1.9 4.67c0 1.81-.62 3.35-1.87 4.6a6.16 6.16 0 0 1-4.55 1.9 6.17 6.17 0 0 1-4.65-1.94 6.43 6.43 0 0 1-1.86-4.6 6.46 6.46 0 0 1 6.5-6.54zm-.03 2.32a3.9 3.9 0 0 0-2.9 1.2 4.19 4.19 0 0 0-1.18 3.06 4 4 0 0 0 1.48 3.26c.77.63 1.65.94 2.64.94a4.14 4.14 0 0 0 4.05-4.22c0-1.19-.4-2.19-1.19-3a3.88 3.88 0 0 0-2.9-1.24zm8.53-2h2.35v12.44h-2.35zM19.9 160.01h2.81c1.82 0 3.16.22 4.04.67.88.45 1.6 1.18 2.18 2.19.57 1 .85 2.19.85 3.53a7.1 7.1 0 0 1-.48 2.65c-.32.8-.76 1.47-1.32 2s-1.17.9-1.82 1.1a13 13 0 0 1-3.4.3H19.9zm2.37 2.28v7.85h1.1c1.08 0 1.86-.13 2.35-.38.49-.24.9-.66 1.2-1.25.31-.59.47-1.3.47-2.16 0-1.33-.37-2.35-1.11-3.08-.67-.65-1.74-.98-3.21-.98zm9.77-2.28h6.8v2.31h-4.45v2.26h4.45v2.27h-4.45v3.28h4.45v2.33h-6.8Zm7.78 0h6.88v2.33h-2.27v10.12h-2.4v-10.12h-2.21zm11.6 0h2.38v8.26a8.4 8.4 0 0 1-.31 2.76c-.21.53-.55.96-1.03 1.27a3.1 3.1 0 0 1-1.73.47c-1.37 0-2.54-.6-3.5-1.8l1.7-1.6c.38.43.7.71.97.86.26.15.52.22.77.22s.44-.1.57-.32c.12-.22.18-.69.18-1.42zm5.23 0h6.8v2.31h-4.44v2.26h4.44v2.27h-4.44v3.28h4.44v2.33h-6.8zm7.78 0h6.88v2.33h-2.27v10.12h-2.4v-10.12h-2.2zm8.67 0h2.51a8.2 8.2 0 0 1 2.94.37c.59.24 1.06.65 1.41 1.22.36.57.54 1.24.54 2.02 0 .82-.2 1.5-.6 2.06-.39.54-.98.96-1.77 1.24l2.95 5.54h-2.6l-2.8-5.28h-.21v5.28H73.1zm2.37 4.86h.74c.76 0 1.28-.1 1.56-.3.29-.2.43-.52.43-.98a1.18 1.18 0 0 0-.78-1.13 4.2 4.2 0 0 0-1.3-.14h-.65zm7.53-4.86h2.27l5.34 8.19V160h2.37v12.46H90.7l-5.33-8.17v8.17H83zm12.98 0h2.5a8.2 8.2 0 0 1 2.95.37c.58.24 1.05.65 1.4 1.22.36.57.54 1.24.54 2.02 0 .82-.2 1.5-.59 2.06-.39.54-.98.96-1.77 1.24l2.95 5.54h-2.6l-2.8-5.28h-.22v5.28h-2.36zm2.36 4.86h.75c.76 0 1.27-.1 1.56-.3.28-.2.43-.52.43-.98a1.18 1.18 0 0 0-.78-1.13 4.2 4.2 0 0 0-1.3-.14h-.66zm7.53 7.59v-12.45h1.95c1.14 0 1.97.07 2.5.22.74.2 1.33.56 1.77 1.1.44.53.66 1.16.66 1.9 0 .47-.1.9-.3 1.29-.2.38-.53.74-.98 1.08.76.36 1.31.8 1.66 1.34.35.53.53 1.16.53 1.88a3.58 3.58 0 0 1-1.95 3.22 5.4 5.4 0 0 1-2.35.42zm2.37-10.2v2.63h.52c.57 0 1-.12 1.27-.36.29-.25.43-.58.43-1 0-.38-.14-.7-.4-.92-.27-.23-.67-.34-1.21-.34zm0 4.75v3.19h.6c.97 0 1.63-.13 1.97-.38.35-.24.52-.6.52-1.08 0-.54-.2-.96-.6-1.27-.4-.31-1.07-.46-2-.46zm7.02-7h7.54l-4.45 10.17h4.16v2.28h-7.61l4.43-10.11h-4.07zm9.5 0h2.5a8.2 8.2 0 0 1 2.94.37 3 3 0 0 1 1.42 1.22c.35.57.53 1.24.53 2.02 0 .82-.2 1.5-.6 2.06-.38.54-.97.96-1.76 1.24l2.94 5.54h-2.59l-2.8-5.28h-.22v5.28h-2.37zm2.36 4.86h.75c.75 0 1.27-.1 1.55-.3.3-.2.43-.52.43-.98a1.18 1.18 0 0 0-.77-1.13 4.2 4.2 0 0 0-1.3-.14h-.66zm7.44-4.86h2.38v8.05c0 .7.06 1.19.18 1.48.12.28.32.51.6.69.28.17.62.25 1.01.25.42 0 .78-.1 1.08-.28.3-.2.51-.44.62-.73.12-.3.18-.87.18-1.7v-7.76H143v7.42c0 1.25-.07 2.12-.21 2.6-.14.49-.41.96-.81 1.41-.4.45-.86.79-1.38 1-.51.22-1.12.33-1.8.33-.9 0-1.7-.2-2.37-.62a3.66 3.66 0 0 1-1.43-1.56 8.26 8.26 0 0 1-.43-3.16zm11.19 0h2.27l5.34 8.19V160h2.37v12.46h-2.28l-5.33-8.17v8.17h-2.37zm12.73 0h2.38v8.05c0 .7.06 1.19.17 1.48.13.28.33.51.6.69.29.17.63.25 1.02.25.42 0 .78-.1 1.08-.28.3-.2.5-.44.62-.73.12-.3.18-.87.18-1.7v-7.76h2.38v7.42c0 1.25-.07 2.12-.21 2.6-.14.49-.42.96-.82 1.41-.4.45-.85.79-1.37 1-.52.22-1.12.33-1.8.33-.91 0-1.7-.2-2.37-.62a3.66 3.66 0 0 1-1.43-1.56 8.26 8.26 0 0 1-.43-3.16zm10.29 0h2.55l2.32 4.46 2.3-4.46h2.51l-3.64 7.05v5.4h-2.38v-5.4zm11.47 0h2.35v12.45h-2.35zm5.02 0h2.37v10.19h3.45v2.26h-5.82zm6.73 0h2.55l2.32 4.46 2.3-4.46h2.52l-3.64 7.05v5.4h-2.39v-5.4zm11.65 0h6.8v2.31h-4.45v2.26h4.45v2.27h-4.45v3.28h4.45v2.33h-6.8zm7.78 0h6.88v2.33h-2.27v10.12h-2.4v-10.12h-2.21zm15.03 1.69-1.75 1.55c-.62-.86-1.24-1.29-1.88-1.29-.31 0-.57.09-.76.25-.2.17-.3.35-.3.56a1 1 0 0 0 .21.6c.2.24.77.78 1.74 1.6.9.75 1.45 1.23 1.64 1.43.48.48.82.95 1.01 1.4.2.43.3.91.3 1.44 0 1.02-.34 1.86-1.05 2.53-.7.67-1.62 1-2.76 1-.88 0-1.66-.22-2.32-.65a5.16 5.16 0 0 1-1.68-2.05l1.99-1.2c.6 1.1 1.28 1.65 2.06 1.65.4 0 .75-.12 1.03-.36.27-.23.41-.5.41-.82 0-.28-.1-.56-.31-.85-.21-.28-.67-.7-1.38-1.29a14.03 14.03 0 0 1-2.63-2.56c-.39-.6-.59-1.2-.59-1.8 0-.86.33-1.6.98-2.22a3.42 3.42 0 0 1 2.44-.93c.62 0 1.21.15 1.77.43.56.3 1.17.82 1.83 1.58zm1.26-1.7h6.88v2.34h-2.27v10.12h-2.4v-10.12h-2.21zm8.51 0h6.8v2.32h-4.44v2.26h4.44v2.27h-4.44v3.28h4.44v2.33h-6.8zM19.01 177.36h2.55l2.31 4.47 2.3-4.47h2.52l-3.64 7.06v5.39h-2.39v-5.4zm11.63 0h2.51c1.36 0 2.34.13 2.94.38.6.25 1.07.65 1.42 1.22.35.56.52 1.23.52 2.01 0 .87-.22 1.6-.68 2.17-.45.58-1.07.98-1.85 1.2-.45.13-1.29.2-2.5.2v5.27h-2.36zm2.37 4.87h.75c.6 0 1-.05 1.24-.13a1.12 1.12 0 0 0 .74-1.12c0-.49-.19-.84-.56-1.06a3.2 3.2 0 0 0-1.5-.24H33zm8.54-4.87h2.32l2.88 8.68 2.92-8.68h2.29l2.1 12.45h-2.29l-1.34-7.86-2.65 7.86H45.7l-2.61-7.86-1.36 7.86H39.4zm14.4 0h2.37v10.19h3.45v2.26h-5.82Zm7.54 0h2.38v8.06c0 .69.06 1.18.18 1.47.12.29.32.52.6.7.28.16.62.25 1.01.25.42 0 .78-.1 1.08-.3.3-.18.51-.43.63-.72.11-.3.17-.86.17-1.7v-7.76h2.38v7.42c0 1.25-.07 2.12-.21 2.6-.14.5-.41.96-.81 1.41a3.81 3.81 0 0 1-3.18 1.33c-.9 0-1.7-.2-2.37-.62a3.66 3.66 0 0 1-1.43-1.55 8.26 8.26 0 0 1-.43-3.17zm11.18 12.45v-12.45h1.96c1.13 0 1.96.07 2.49.22.74.2 1.33.56 1.77 1.1.44.54.66 1.17.66 1.9a2.79 2.79 0 0 1-1.27 2.37c.75.36 1.3.8 1.65 1.34.35.53.53 1.16.53 1.89a3.56 3.56 0 0 1-1.94 3.21 5.4 5.4 0 0 1-2.36.42zm2.37-10.2v2.63h.52c.57 0 1-.12 1.28-.36s.42-.57.42-1c0-.38-.13-.69-.4-.91-.26-.24-.67-.35-1.2-.35zm0 4.75v3.19h.6c.98 0 1.64-.12 1.98-.37.34-.25.51-.61.51-1.09 0-.53-.2-.96-.6-1.27-.4-.3-1.07-.46-2-.46zm11.48-7h2.4l4.8 12.45h-2.47l-.97-2.57H87.2l-1.02 2.57h-2.46zm1.22 3.3-1.66 4.27h3.3zm14.33-1.6-1.75 1.54c-.61-.86-1.24-1.29-1.88-1.29-.3 0-.56.09-.76.26-.2.16-.3.35-.3.56 0 .2.08.4.22.59.19.25.77.78 1.73 1.6.9.75 1.45 1.23 1.64 1.43.48.48.82.95 1.02 1.4.2.44.3.92.3 1.44 0 1.02-.35 1.87-1.05 2.53-.7.67-1.63 1-2.76 1-.89 0-1.66-.22-2.32-.65a5.16 5.16 0 0 1-1.69-2.05l2-1.2c.6 1.1 1.28 1.65 2.06 1.65.4 0 .75-.12 1.02-.35.28-.24.42-.52.42-.83 0-.28-.1-.56-.32-.84-.2-.28-.66-.72-1.38-1.3a14.03 14.03 0 0 1-2.62-2.55 2.96 2.96 0 0 1 .39-4.02 3.42 3.42 0 0 1 2.44-.93c.62 0 1.2.14 1.77.43.56.29 1.17.81 1.82 1.57zm2.5 10.75v-12.45h1.95c1.13 0 1.96.07 2.49.22.74.2 1.33.56 1.77 1.1.44.54.66 1.17.66 1.9a2.79 2.79 0 0 1-1.27 2.37c.75.36 1.3.8 1.65 1.34.35.53.53 1.16.53 1.89a3.56 3.56 0 0 1-1.94 3.21 5.4 5.4 0 0 1-2.36.42zm2.36-10.2v2.63h.52c.57 0 1-.12 1.28-.36s.42-.57.42-1c0-.38-.13-.69-.4-.91-.26-.24-.67-.35-1.2-.35zm0 4.75v3.19h.6c.98 0 1.64-.12 1.98-.37.34-.25.51-.61.51-1.09 0-.53-.2-.96-.6-1.27-.4-.3-1.07-.46-2-.46zm7.03-7h7.53l-4.44 10.17h4.15v2.28h-7.6l4.42-10.1h-4.06zm9.32 12.45v-12.45h1.96c1.13 0 1.96.07 2.49.22.74.2 1.33.56 1.77 1.1.45.54.67 1.17.67 1.9 0 .47-.1.9-.31 1.29-.2.38-.52.75-.97 1.08a4 4 0 0 1 1.66 1.34c.35.53.52 1.16.52 1.89a3.56 3.56 0 0 1-1.94 3.21 5.4 5.4 0 0 1-2.36.42zm2.37-10.2v2.63h.52c.58 0 1-.12 1.28-.36s.42-.57.42-1c0-.38-.13-.69-.4-.91-.26-.24-.66-.35-1.2-.35zm0 4.75v3.19h.6c.98 0 1.64-.12 1.98-.37.34-.25.51-.61.51-1.09 0-.53-.2-.96-.6-1.27-.4-.3-1.06-.46-2-.46zm13.57-7.31c1.76 0 3.27.63 4.54 1.9a6.36 6.36 0 0 1 1.9 4.67c0 1.82-.62 3.36-1.88 4.61a6.16 6.16 0 0 1-4.54 1.9 6.17 6.17 0 0 1-4.66-1.95 6.43 6.43 0 0 1-1.85-4.6 6.46 6.46 0 0 1 6.5-6.53zm-.02 2.32a3.9 3.9 0 0 0-2.9 1.2 4.19 4.19 0 0 0-1.18 3.05c0 1.38.49 2.47 1.48 3.27.76.63 1.64.94 2.64.94a4.14 4.14 0 0 0 4.05-4.22c0-1.19-.4-2.2-1.2-3a3.88 3.88 0 0 0-2.9-1.24zm8.7-2.01h2.27l5.34 8.2v-8.2h2.37v12.45h-2.27l-5.34-8.17v8.17h-2.37zm12.16 0h7.53l-4.44 10.17h4.15v2.28h-7.6l4.42-10.1h-4.06zm20 10.63 2.17 2.8h-2.8l-1.1-1.41c-.92.5-1.93.74-3.05.74a6.18 6.18 0 0 1-4.65-1.93 6.44 6.44 0 0 1-1.85-4.61 6.42 6.42 0 0 1 3.23-5.65 6.36 6.36 0 0 1 7.8 1.03 6.36 6.36 0 0 1 1.9 4.66c0 1.69-.55 3.14-1.64 4.37zm-1.48-1.91a4.36 4.36 0 0 0-.44-5.47 3.86 3.86 0 0 0-2.88-1.24c-1.16 0-2.14.4-2.92 1.2a4.19 4.19 0 0 0-1.18 3.05 4.07 4.07 0 0 0 5.7 3.88l-2.22-2.87h2.83zm5.2-8.72h2.35v12.45h-2.36zm8.8 0h2.4l4.8 12.45h-2.47l-.97-2.57h-5.08l-1.01 2.57h-2.47zm1.22 3.3-1.66 4.27h3.31zm7.8-3.3h2.52c1.36 0 2.34.13 2.94.38.6.25 1.07.65 1.42 1.22.35.56.52 1.23.52 2.01 0 .87-.23 1.6-.68 2.17-.45.58-1.07.98-1.85 1.2-.45.13-1.29.2-2.5.2v5.27h-2.36zm2.38 4.87h.75c.6 0 1-.05 1.23-.13.24-.09.42-.22.55-.42.13-.2.2-.43.2-.7 0-.49-.19-.84-.56-1.06a3.2 3.2 0 0 0-1.5-.24h-.67zm8.54-4.87h2.32l2.88 8.68 2.92-8.68h2.29l2.1 12.45h-2.3l-1.33-7.86-2.65 7.86h-2.09l-2.61-7.86-1.37 7.86h-2.3zm18.2 0h2.4l4.79 12.45h-2.47l-.97-2.57h-5.08l-1.01 2.57h-2.47Zm1.21 3.3-1.66 4.27h3.31zM31.4 196.71l-1.67 1.65a4.93 4.93 0 0 0-3.69-1.67 4.2 4.2 0 0 0-3.08 1.22 4 4 0 0 0-1.23 2.96c0 1.2.42 2.22 1.28 3.05a4.37 4.37 0 0 0 3.18 1.26c.81 0 1.5-.17 2.06-.52a3.62 3.62 0 0 0 1.36-1.62H26v-2.22h6.26l.02.52a6.1 6.1 0 0 1-.85 3.1 5.92 5.92 0 0 1-2.19 2.24c-.9.5-1.95.77-3.16.77a7.06 7.06 0 0 1-3.46-.84 6.23 6.23 0 0 1-2.4-2.4 6.72 6.72 0 0 1-.88-3.37 6.44 6.44 0 0 1 6.68-6.47c1.08 0 2.1.2 3.03.6.8.34 1.58.92 2.34 1.74zm1.84-2.03h6.88v2.34h-2.27v10.11h-2.4v-10.11h-2.21zm8.51 0h6.8V197H44.1v2.25h4.45v2.28H44.1v3.27h4.45v2.33h-6.8zm8.35 0h7.53l-4.44 10.18h4.15v2.27h-7.6l4.42-10.1H50.1zm20.77 2.2-1.66 1.58a5.14 5.14 0 0 0-3.81-1.79c-1.2 0-2.2.4-3.02 1.22a4.08 4.08 0 0 0-1.21 3c0 .83.18 1.57.54 2.21.36.65.87 1.15 1.53 1.52.66.37 1.4.55 2.2.55.69 0 1.32-.13 1.89-.38.57-.26 1.2-.73 1.88-1.4l1.6 1.67a8.9 8.9 0 0 1-2.6 1.87c-.82.34-1.75.52-2.8.52a6.47 6.47 0 0 1-4.76-1.84 6.4 6.4 0 0 1-1.85-4.72c0-1.25.28-2.35.84-3.31a6.83 6.83 0 0 1 5.8-3.2 7.08 7.08 0 0 1 5.43 2.5zm3.27-2.2h2.32l2.88 8.69 2.92-8.69h2.28l2.1 12.45h-2.28L83 199.27l-2.65 7.86h-2.1l-2.6-7.86-1.37 7.86H72zm25.08 10.63 2.16 2.8h-2.8l-1.1-1.4c-.91.49-1.93.74-3.04.74a6.18 6.18 0 0 1-4.66-1.93 6.44 6.44 0 0 1-1.85-4.62 6.42 6.42 0 0 1 3.23-5.65 6.36 6.36 0 0 1 7.8 1.03 6.36 6.36 0 0 1 1.9 4.67c0 1.68-.55 3.14-1.64 4.36zm-1.48-1.91c.5-.74.75-1.57.75-2.47 0-1.18-.4-2.18-1.2-3a3.86 3.86 0 0 0-2.88-1.24c-1.16 0-2.13.4-2.92 1.2a4.19 4.19 0 0 0-1.18 3.06c0 1.37.5 2.46 1.49 3.26a4.07 4.07 0 0 0 4.22.61l-2.23-2.87h2.83zm5.35 3.73v-12.45h1.96c1.13 0 1.96.08 2.49.22.74.2 1.34.57 1.78 1.1.44.54.66 1.17.66 1.9 0 .47-.1.9-.3 1.3-.2.38-.53.74-.98 1.08.75.35 1.3.8 1.66 1.33.35.53.52 1.16.52 1.9 0 .7-.18 1.33-.54 1.9a3.49 3.49 0 0 1-1.4 1.3 5.4 5.4 0 0 1-2.36.42zm2.37-10.19v2.63h.52c.58 0 1-.13 1.28-.37s.42-.57.42-.99c0-.39-.13-.7-.4-.92-.26-.23-.66-.35-1.2-.35zm0 4.74v3.2h.6c.98 0 1.64-.13 1.98-.38.34-.25.51-.6.51-1.08 0-.54-.2-.96-.6-1.27-.4-.31-1.06-.47-2-.47zm7.6-7h2.38v8.06c0 .7.06 1.18.18 1.47.12.29.32.52.6.7.28.17.62.25 1.02.25.41 0 .77-.1 1.07-.29.3-.19.52-.43.63-.73.12-.3.18-.86.18-1.7v-7.76h2.37v7.42c0 1.26-.07 2.13-.2 2.61-.15.49-.42.96-.82 1.4-.4.46-.85.8-1.37 1.01a4.6 4.6 0 0 1-1.81.33c-.9 0-1.7-.21-2.36-.62a3.66 3.66 0 0 1-1.43-1.56 8.26 8.26 0 0 1-.44-3.17zm21.87 10.63 2.16 2.8h-2.8l-1.1-1.4c-.92.49-1.93.74-3.05.74a6.18 6.18 0 0 1-4.65-1.93 6.44 6.44 0 0 1-1.85-4.62 6.42 6.42 0 0 1 3.23-5.65 6.36 6.36 0 0 1 7.8 1.03 6.36 6.36 0 0 1 1.9 4.67c0 1.68-.55 3.14-1.64 4.36zm-1.49-1.91c.5-.74.76-1.57.76-2.47 0-1.18-.4-2.18-1.2-3a3.86 3.86 0 0 0-2.88-1.24c-1.16 0-2.14.4-2.92 1.2a4.19 4.19 0 0 0-1.18 3.06 4.07 4.07 0 0 0 5.7 3.88l-2.22-2.88h2.83zm5.36 3.73v-12.45h1.96c1.13 0 1.96.08 2.49.22.74.2 1.33.57 1.77 1.1.44.54.66 1.17.66 1.9 0 .47-.1.9-.3 1.3-.2.38-.52.74-.98 1.08.76.35 1.31.8 1.66 1.33.35.53.53 1.16.53 1.9 0 .7-.18 1.33-.54 1.9a3.49 3.49 0 0 1-1.4 1.3 5.4 5.4 0 0 1-2.36.42zm2.37-10.19v2.63h.52c.57 0 1-.13 1.28-.37s.42-.57.42-.99c0-.39-.13-.7-.4-.92-.26-.23-.67-.35-1.2-.35zm0 4.74v3.2h.6c.98 0 1.64-.13 1.97-.38.35-.25.52-.6.52-1.08 0-.54-.2-.96-.6-1.27-.4-.31-1.07-.47-2-.47zm12.54-7.31h3.71v2.16h-1.37v11.82h1.37v2.15h-3.7zm5.16.31h8.17v1.25l-5.62 11.52-2-.98 4.66-9.56h-5.21zm13.7-.31 2 1-2.17 4.24c1.06 0 1.95.38 2.7 1.13.73.76 1.1 1.7 1.1 2.82 0 1.08-.38 2-1.14 2.76a3.75 3.75 0 0 1-2.74 1.13 3.74 3.74 0 0 1-2.81-1.17 3.8 3.8 0 0 1-.95-3.85c.12-.4.39-1 .8-1.8zm-.3 7.48c-.44 0-.81.16-1.11.48-.3.32-.45.72-.45 1.2s.15.88.47 1.2c.31.33.68.5 1.1.5.44 0 .81-.16 1.13-.48.32-.33.47-.73.47-1.22 0-.48-.15-.88-.46-1.2-.3-.32-.69-.48-1.15-.48zm9.09 8.65h-3.71v-2.16h1.37v-11.82h-1.37v-2.15h3.7z" aria-label="Find the keyword for the following Fractionated Morse Cipher. It is a flavor text from a modded KTANE module. The last two words are “NO SENSE”.ASBFZQIDJAMBIWEBOZNOIDETJETRNRBZRUNUYILYETSTEYPMLUBASBZBONZQIAPMAGTEZCMQBUQB [76]"/><path fill="#000" stroke="none" d="M39.02 262.5h7.7l15.36 39.91h-7.9l-3.11-8.22H34.79l-3.26 8.22h-7.89zm3.9 10.59-5.3 13.7h10.6zm61.73-3.56-5.32 5.07q-5.43-5.72-12.2-5.72-5.73 0-9.67 3.9-3.9 3.91-3.9 9.64 0 3.99 1.73 7.08 1.74 3.1 4.91 4.85 3.18 1.77 7.06 1.77 3.3 0 6.05-1.22 2.74-1.25 6.02-4.5l5.15 5.36q-4.42 4.32-8.35 6-3.94 1.66-8.98 1.66-9.3 0-15.25-5.9-5.9-5.89-5.9-15.12 0-5.97 2.68-10.6 2.72-4.65 7.74-7.47 5.04-2.82 10.85-2.82 4.93 0 9.5 2.09 4.58 2.09 7.89 5.94zm6.7-7.02h7.67v13.72l10.83-13.72h9.14l-13.94 17.8 15.3 22.1h-9l-12.33-17.71v17.71h-7.67zM171.3 284v5.4h-6.27l-1.92 13h-5.45l1.9-13h-5.19l-1.9 13h-5.42l1.9-13h-6.1V284h6.94l.81-5.1h-6.05v-5.4h6.81l1.77-12h5.29l-1.69 12h5.19l1.76-12h5.45l-1.76 12h5.48v5.4h-6.27l-.7 5.1zm-10.14-5.1h-5.27l-.7 5.1h5.12z" aria-label="ACK#"/></svg>