<?xml version="1.0" encoding="UTF-8" standalone="no"?>
<svg
   viewBox="0 0 348 348"
   fill="none"
   version="1.1"
   id="svg8"
   sodipodi:docname="Cruel Boolean Wires.svg"
   inkscape:version="1.4 (86a8ad7, 2024-10-11)"
   xmlns:inkscape="http://www.inkscape.org/namespaces/inkscape"
   xmlns:sodipodi="http://sodipodi.sourceforge.net/DTD/sodipodi-0.dtd"
   xmlns="http://www.w3.org/2000/svg"
   xmlns:svg="http://www.w3.org/2000/svg">
  <defs
     id="defs8">
    <rect
       x="26.569863"
       y="28.381444"
       width="58.184106"
       height="34.090377"
       id="rect10" />
    <rect
       x="26.569862"
       y="28.381445"
       width="58.184105"
       height="34.090378"
       id="rect10-4" />
  </defs>
  <sodipodi:namedview
     id="namedview8"
     pagecolor="#ffffff"
     bordercolor="#000000"
     borderopacity="0.25"
     inkscape:showpageshadow="2"
     inkscape:pageopacity="0.0"
     inkscape:pagecheckerboard="0"
     inkscape:deskcolor="#d1d1d1"
     inkscape:zoom="1.6560116"
     inkscape:cx="-17.210024"
     inkscape:cy="168.77901"
     inkscape:window-width="2560"
     inkscape:window-height="1017"
     inkscape:window-x="-8"
     inkscape:window-y="-8"
     inkscape:window-maximized="1"
     inkscape:current-layer="svg8" />
  <path
     d="M5.079 5.776h336.913v337.67H5.08z"
     stroke-width="2"
     stroke="#000"
     id="path1" />
  <path
     d="M282.734 40.554c0-8.376 6.966-15.165 15.56-15.165 4.126 0 8.084 1.597 11.001 4.441 2.918 2.844 4.558 6.702 4.558 10.724 0 8.376-6.966 15.165-15.56 15.165-8.593 0-15.559-6.79-15.559-15.165z"
     stroke-width="2"
     stroke="#000"
     id="path2" />
  <rect
     style="fill:#000000;fill-opacity:0;stroke:#000000;stroke-width:1.8454;stroke-dasharray:none;stroke-opacity:1"
     id="rect8"
     width="74.825584"
     height="53.101692"
     x="18.283442"
     y="20.41852"
     ry="0" />
  <rect
     style="fill:#000000;fill-opacity:0;stroke:#000000;stroke-width:1.8454;stroke-dasharray:none;stroke-opacity:1"
     id="rect8-0"
     width="74.825584"
     height="53.101692"
     x="98.422569"
     y="20.432047"
     ry="0" />
  <rect
     style="fill:#000000;fill-opacity:0;stroke:#000000;stroke-width:1.8454;stroke-dasharray:none;stroke-opacity:1"
     id="rect8-0-9"
     width="74.825584"
     height="53.101692"
     x="178.70389"
     y="20.368101"
     ry="0" />
  <rect
     style="fill:#000000;fill-opacity:0;stroke:#000000;stroke-width:2;stroke-dasharray:none;stroke-opacity:1"
     id="rect9"
     width="314.00748"
     height="243.95964"
     x="16.908094"
     y="88.163635" />
  <text
     xml:space="preserve"
     id="text9"
     style="font-style:normal;font-variant:normal;font-weight:bold;font-stretch:normal;font-size:24px;font-family:'Century Gothic';-inkscape-font-specification:'Century Gothic Bold';text-align:start;writing-mode:lr-tb;direction:ltr;white-space:pre;shape-inside:url(#rect10);fill:#000000;fill-opacity:1;stroke:#000000;stroke-width:2;stroke-dasharray:none;stroke-opacity:0"
     transform="matrix(1.3177739,0,0,1.3177739,-5.750223,-10.931277)"><tspan
       x="26.570312"
       y="55.011818"
       id="tspan2"><tspan
   style="font-size:29.3333px"
   id="tspan1">X+</tspan> </tspan></text>
  <text
     xml:space="preserve"
     id="text9-8"
     style="font-style:normal;font-variant:normal;font-weight:bold;font-stretch:normal;font-size:24px;font-family:'Century Gothic';-inkscape-font-specification:'Century Gothic Bold';text-align:start;writing-mode:lr-tb;direction:ltr;white-space:pre;shape-inside:url(#rect10-4);fill:#000000;fill-opacity:1;stroke:#000000;stroke-width:2;stroke-dasharray:none;stroke-opacity:0"
     transform="matrix(1.3177739,0,0,1.3177739,76.539209,-11.115767)"><tspan
       x="26.570312"
       y="55.011818"
       id="tspan4"><tspan
   style="font-size:29.3333px"
   id="tspan3">!Y-</tspan> </tspan></text>
  <text
     xml:space="preserve"
     style="font-style:normal;font-variant:normal;font-weight:bold;font-stretch:normal;font-size:37.3333px;font-family:'Century Gothic';-inkscape-font-specification:'Century Gothic Bold';text-align:start;writing-mode:lr-tb;direction:ltr;text-anchor:start;fill:#000000;fill-opacity:1;stroke:#000000;stroke-width:2;stroke-dasharray:none;stroke-opacity:0"
     x="205.01065"
     y="60.989914"
     id="text12"><tspan
       sodipodi:role="line"
       id="tspan12"
       x="205.01065"
       y="60.989914">1</tspan></text>
  <path
     style="fill:#000000;fill-opacity:1;stroke:#000000;stroke-width:2;stroke-dasharray:none;stroke-opacity:0"
     id="path19"
     d="m 38.692353,108.3085 c 3.545407,0.26768 7.099645,0.38636 10.653343,0.47368 3.508532,0.1593 7.00833,-0.004 10.510065,-0.20668 3.191992,-0.19922 6.389494,-0.26759 9.586751,-0.30713 3.403207,0.19607 6.700014,1.07327 10.033963,1.70729 4.398495,0.80248 8.861681,1.07462 13.322078,1.22632 4.292913,0.13522 8.568917,-0.46362 12.842857,-0.80572 6.32856,-0.33087 12.62602,-1.04458 18.92828,-1.68275 3.18677,-0.31206 6.39167,-0.50834 9.59335,-0.39656 3.52789,0.3864 7.05807,0.72888 10.60074,0.94612 3.24723,0.21309 6.5051,0.0956 9.75262,0.26564 3.03476,0.26268 6.07686,0.38892 9.12122,0.46445 2.54153,0.0512 5.08361,0.0618 7.62556,0.0686 5.34504,0.0143 5.36525,-7.54473 0.0202,-7.55902 v 0 c -2.48648,-0.007 -4.97309,-0.0168 -7.45916,-0.0663 -2.98119,-0.0733 -5.95945,-0.20193 -8.93132,-0.45737 -3.22061,-0.1541 -6.44789,-0.0734 -9.66819,-0.26096 -3.61761,-0.22012 -7.21842,-0.60045 -10.82433,-0.95645 -3.53588,-0.10131 -7.0732,0.0696 -10.59228,0.43128 -6.24953,0.63289 -12.49416,1.34166 -18.76991,1.6684 -3.98874,0.31936 -7.979691,0.8849 -11.984639,0.78591 -4.07471,-0.13643 -8.152846,-0.37259 -12.172336,-1.09894 -3.826788,-0.71927 -7.614758,-1.73455 -11.532493,-1.83838 -3.311582,0.0412 -6.623375,0.11327 -9.929515,0.31916 -3.29492,0.19061 -6.586613,0.35325 -9.888227,0.19634 -3.422078,-0.0837 -6.844737,-0.19672 -10.258883,-0.45369 -5.329316,-0.40995 -5.909069,7.12684 -0.579754,7.53679 z" />
  <path
     style="fill:#000000;fill-opacity:1;stroke:#000000;stroke-width:2;stroke-dasharray:none;stroke-opacity:0"
     id="path20"
     d="m 186.35335,107.14019 c 4.49414,0.71333 9.00647,1.1129 13.54938,1.33084 8.7124,0.30096 17.44257,0.42615 26.13995,-0.23891 4.98279,-0.41359 9.79444,-1.80357 14.64824,-2.90717 4.49979,-0.89554 9.0887,-1.24766 13.66947,-1.10704 4.29584,0.19006 8.54682,0.92708 12.77522,1.67241 4.0403,0.7855 8.07087,1.63304 12.12787,2.32812 4.57703,0.69553 9.1668,1.30969 13.75623,1.91971 2.20768,0.31228 4.43116,0.46256 6.65849,0.52119 1.42244,0.0259 2.84522,0.0154 4.2678,0.011 1.6673,0.11033 3.25274,-0.20766 4.81405,-0.76537 5.03014,-1.80759 2.47383,-8.92128 -2.55631,-7.11369 v 0 c -0.7555,0.27378 -1.42808,0.43886 -2.281,0.32004 -1.34977,0.004 -2.6997,0.0142 -4.04935,-0.009 -1.95979,-0.0495 -3.91595,-0.18102 -5.85821,-0.45787 -4.49757,-0.59718 -8.99515,-1.20074 -13.4811,-1.87799 -4.04538,-0.68618 -8.06091,-1.546097 -12.08999,-2.321564 -4.59467,-0.805364 -9.21284,-1.59845 -13.88174,-1.783819 -5.21385,-0.122398 -10.43373,0.232555 -15.55073,1.293229 -4.49211,1.02554 -8.94456,2.321084 -13.5513,2.740744 -8.38356,0.65517 -16.80175,0.49953 -25.20009,0.2249 -4.27836,-0.19967 -8.52538,-0.57827 -12.75747,-1.251396 -5.2829,-0.812754 -6.43231,6.658406 -1.14941,7.471156 z" />
  <path
     style="fill:#000000;fill-opacity:1;stroke:#000000;stroke-width:2;stroke-dasharray:none;stroke-opacity:0"
     id="path21"
     d="m 312.83927,118.63708 c 0.65119,4.05599 0.7577,8.17238 0.87759,12.27052 0.11518,4.57349 0.13504,9.14855 0.14227,13.72324 0.012,3.16956 -0.0496,6.33876 0.0697,9.50643 0.33576,3.93298 1.56812,7.69865 2.31869,11.55814 0.59236,2.56569 0.95856,5.16949 1.12517,7.79508 0.1284,2.51343 0.11426,5.0313 0.11487,7.54719 -0.003,2.81743 -0.008,5.63485 -0.0108,8.45228 -0.002,2.31471 -0.002,4.62942 -0.003,6.94413 -0.0741,1.71032 0.12438,3.4412 -0.0591,5.1451 -0.20137,1.29825 -0.20248,2.6289 -0.45387,3.9181 -0.89754,5.26916 6.55418,6.53848 7.45173,1.26932 v 0 c 0.24085,-1.51145 0.35578,-3.03747 0.5349,-4.55754 0.1392,-1.922 0.0728,-3.84802 0.0854,-5.77431 2.1e-4,-2.31247 5.8e-4,-4.62495 0.003,-6.93742 0.003,-2.82053 0.007,-5.64106 0.0108,-8.46159 -7.1e-4,-2.67906 0.0125,-5.36027 -0.13086,-8.03646 -0.19597,-2.94695 -0.58736,-5.87366 -1.2498,-8.75509 -0.68415,-3.47958 -1.73686,-6.88093 -2.18388,-10.40303 -0.12604,-3.07241 -0.0407,-6.14784 -0.064,-9.22229 -0.007,-4.64475 -0.0279,-9.28987 -0.14552,-13.93338 -0.1311,-4.4401 -0.26129,-8.89828 -0.97717,-13.29113 -0.87873,-5.27233 -8.33493,-4.02963 -7.45621,1.24271 z" />
  <path
     style="fill:#000000;fill-opacity:1;stroke:#000000;stroke-width:2;stroke-dasharray:none;stroke-opacity:0"
     id="path22"
     d="m 315.57918,221.1314 c -0.6092,3.49505 -1.09551,7.00311 -1.41112,10.5368 -0.28452,2.52349 -0.18483,5.07107 -0.38601,7.5976 -0.48727,2.7812 -1.36084,5.50302 -2.2561,8.17955 -1.20154,2.87675 -1.87392,5.90278 -2.25812,8.98431 -0.27754,2.9169 -0.2655,5.85071 -0.26983,8.77774 0.003,2.57987 0.0127,5.15971 0.0174,7.73957 0.0244,3.13286 -0.0554,6.26663 0.0811,9.3971 0.0182,2.51301 0.65175,4.91469 1.30524,7.31483 0.33144,1.3838 0.41395,2.80631 0.62868,4.21102 0.2389,1.36387 0.33519,2.74222 0.37576,4.12405 0.0359,1.95191 0.0352,3.90426 0.0346,5.85644 -0.001,1.3418 -0.003,2.68361 -0.004,4.02541 -0.004,5.34506 7.5552,5.35051 7.55905,0.005 v 0 c 9.7e-4,-1.34281 0.003,-2.68562 0.004,-4.02843 6.5e-4,-2.0305 0.001,-4.0612 -0.0381,-6.0914 -0.0539,-1.68723 -0.1731,-3.37094 -0.45947,-5.03695 -0.26004,-1.6907 -0.34917,-3.40788 -0.81021,-5.06349 -0.51245,-1.86034 -1.05341,-3.70636 -1.04435,-5.66299 -0.14677,-3.0187 -0.0334,-6.04345 -0.0731,-9.06482 -0.005,-2.57162 -0.0142,-5.14323 -0.0174,-7.71485 0.004,-2.62542 -0.0108,-5.25641 0.21434,-7.8744 0.30559,-2.58685 0.90707,-5.1037 1.92667,-7.51108 1.08401,-3.26972 2.1632,-6.59302 2.62281,-10.01437 0.17183,-2.49105 0.13168,-4.99357 0.3766,-7.4815 0.29177,-3.30497 0.75086,-6.58463 1.31884,-9.85339 0.95615,-5.25884 -6.48097,-6.61104 -7.43713,-1.3522 z" />
  <path
     style="fill:#000000;fill-opacity:1;stroke:#000000;stroke-width:2;stroke-dasharray:none;stroke-opacity:0"
     id="path23"
     d="m 307.31972,315.60159 c -2.47303,-0.0987 -4.95571,-0.41518 -7.43368,-0.37419 -2.38535,0.0395 -4.39901,0.27981 -6.78788,0.50425 -7.71485,0.79603 -15.45961,1.23706 -23.2069,1.5567 -3.04904,0.12224 -6.09974,0.1929 -9.15114,0.20146 -2.65947,-0.0444 -5.29668,0.36775 -7.90701,0.83064 -2.84277,0.56424 -5.67937,1.06879 -8.56746,1.32976 -2.61355,0.18562 -5.23395,0.2306 -7.85311,0.24889 -2.49102,0.006 -4.98205,-0.002 -7.47307,-0.005 -2.84836,-0.1102 -5.68785,-0.36781 -8.53524,-0.49518 -2.9173,-0.24054 -5.80631,-0.72609 -8.71834,-1.02786 -1.80088,-0.18711 -3.61049,-0.24954 -5.41955,-0.28583 -5.34401,-0.10583 -5.49367,7.45174 -0.14966,7.55757 v 0 c 1.59967,0.0312 3.20005,0.0825 4.7926,0.24731 3.05925,0.31482 6.09242,0.84644 9.16126,1.0605 2.95572,0.1288 5.90246,0.41437 8.86035,0.50254 2.51163,0.003 5.02328,0.0106 7.53491,0.005 2.8312,-0.0201 5.66386,-0.0712 8.48848,-0.28014 3.10207,-0.2868 6.15554,-0.80623 9.20872,-1.41623 2.17719,-0.39273 4.37928,-0.75311 6.59875,-0.71276 3.14818,-0.009 6.29566,-0.0815 9.44139,-0.20787 7.88106,-0.32572 15.75947,-0.7752 23.60764,-1.58393 1.33833,-0.12782 4.30627,-0.4473 5.81049,-0.47522 2.37264,-0.044 4.75067,0.26511 7.1187,0.35656 5.32931,0.40994 5.90907,-7.12685 0.57975,-7.53679 z" />
  <path
     style="fill:#000000;fill-opacity:1;stroke:#000000;stroke-width:2;stroke-dasharray:none;stroke-opacity:0"
     id="path24"
     d="m 188.28603,317.39077 c -3.78846,-0.68112 -7.63779,-0.85828 -11.47672,-0.9863 -5.6366,-0.24371 -11.27315,-0.48592 -16.91304,-0.63898 -3.83465,-0.0802 -7.67093,-0.16145 -11.50491,-0.0335 -4.06251,0.23556 -8.12814,0.8006 -12.12872,1.55139 -0.73217,0.1751 -1.46921,0.33096 -2.1965,0.52532 -1.22575,0.35928 -3.40473,1.00699 -4.65585,1.33896 -2.09446,0.55576 -4.19303,0.96432 -6.32937,1.31519 -3.69337,0.57333 -7.43761,0.33337 -11.14407,0.053 -3.85989,-0.39965 -7.66057,-1.20843 -11.4918,-1.80687 -6.050321,-0.66061 -12.037557,-1.73734 -18.033487,-2.7603 -2.495696,-0.27041 -4.861683,-1.09265 -7.292993,-1.66274 -2.92786,-0.69016 -5.943278,-0.75004 -8.909787,-1.18083 -3.002306,-0.44823 -6.015327,-0.81981 -9.025657,-1.21118 -2.594227,-0.37754 -5.216554,-0.41161 -7.832387,-0.44795 -0.456033,-0.004 -0.912065,-0.008 -1.368098,-0.0114 -5.344875,-0.0443 -5.407547,7.51448 -0.06267,7.5588 v 0 c 0.442174,0.004 0.884348,0.007 1.326522,0.0109 2.324896,0.0318 4.656673,0.0476 6.962432,0.38562 2.978503,0.38696 5.959671,0.75408 8.93011,1.19815 2.749457,0.38794 5.53468,0.47955 8.255143,1.05759 2.579996,0.60401 5.096462,1.47074 7.746155,1.7544 6.031505,1.02895 12.054584,2.11356 18.140788,2.77781 4.028799,0.62625 8.023819,1.48915 12.087049,1.8756 4.30945,0.3243 8.6591,0.55309 12.9495,-0.13342 2.41059,-0.40316 4.77975,-0.86862 7.14374,-1.49693 8.75052,-2.32576 -3.3236,0.82763 4.37718,-1.2661 0.60971,-0.16578 1.22777,-0.29914 1.84165,-0.44871 3.61302,-0.70488 7.3026,-1.1796 10.97262,-1.42179 3.67812,-0.13253 7.35957,-0.0324 11.03853,0.0352 5.62516,0.15238 11.24693,0.39566 16.86884,0.63765 3.46904,0.11297 6.94886,0.26032 10.37359,0.86847 5.25885,0.95616 6.61105,-6.48097 1.35221,-7.43712 z" />
  <path
     style="fill:#000000;fill-opacity:1;stroke:#000000;stroke-width:2;stroke-dasharray:none;stroke-opacity:0"
     id="path25"
     d="m 45.289588,303.7447 c -1.394089,-2.8163 -1.903113,-5.87288 -2.405349,-8.93994 -0.635277,-3.92005 -0.879543,-7.88612 -1.00761,-11.8505 0.02306,-3.14552 -0.268315,-6.31887 0.0608,-9.45302 0.320637,-2.92543 1.165031,-5.75073 1.695324,-8.64089 0.445874,-2.90041 0.549323,-5.83848 0.603825,-8.76797 0.02681,-2.37375 0.01561,-4.74773 0.01003,-7.12156 -0.0057,-1.91999 0.02587,-3.83801 -0.08813,-5.75491 -0.215879,-2.33784 -0.382136,-4.67792 -0.45836,-7.02444 0.01552,-2.4001 -0.125418,-4.78537 -0.361699,-7.17236 -0.08931,-1.90311 -0.449002,-3.77402 -0.682422,-5.66071 -0.08533,-0.85472 -0.09825,-0.50226 -0.04748,-1.05703 0.0645,-5.34467 -7.494001,-5.43589 -7.558505,-0.0912 v 0 c 0.01289,1.46855 -0.02912,0.77273 0.105647,2.08859 0.230796,1.82168 0.574907,3.6276 0.660539,5.46569 0.220424,2.22241 0.347524,4.44022 0.328951,6.67552 0.08074,2.42764 0.243296,4.84958 0.470312,7.26808 0.130385,1.75646 0.03862,3.52042 0.07211,5.28056 0.0055,2.32165 0.01637,4.64344 -0.0088,6.96502 -0.04563,2.52128 -0.12564,5.0498 -0.48225,7.54948 -0.564145,3.10985 -1.502143,6.14639 -1.78629,9.30461 -0.289899,3.45627 -0.13653,6.92766 -0.08867,10.39303 0.14129,4.29202 0.412735,8.58522 1.103471,12.82879 0.627836,3.81418 1.360913,7.60463 3.103499,11.0957 2.390383,4.78076 9.151408,1.40025 6.761025,-3.38052 z" />
  <path
     style="fill:#000000;fill-opacity:1;stroke:#000000;stroke-width:2;stroke-dasharray:none;stroke-opacity:0"
     id="path26"
     d="m 30.518728,116.37259 c -1.207742,5.67434 -2.085282,11.43036 -2.895631,17.17645 -0.720857,5.13337 -1.554233,10.24891 -2.492699,15.3467 -0.687772,3.58226 -0.965423,7.21803 -1.088964,10.85748 0.01134,3.48756 -0.121705,6.96446 -0.324542,10.44499 -0.37258,3.19264 -0.924263,6.35536 -1.220546,9.55886 -0.245322,3.02603 -0.289128,6.06321 -0.314947,9.09753 -0.0922,2.23423 0.08667,4.45474 0.289216,6.67715 0.292422,2.29654 0.648201,4.57868 1.304206,6.80119 0.449063,1.13135 0.658974,2.29825 0.760733,3.50242 0.04462,0.78181 0.02627,0.38942 0.05488,1.17716 0.202206,5.34123 7.75585,5.05527 7.553644,-0.28597 v 0 c -0.04015,-1.02777 -0.01399,-0.50605 -0.07957,-1.56508 -0.15946,-1.71808 -0.450366,-3.41197 -1.05974,-5.03469 -0.556383,-1.71199 -0.719312,-3.5117 -1.006312,-5.28126 -0.179985,-1.97392 -0.35328,-3.94176 -0.258275,-5.92697 0.02376,-2.82547 0.06094,-5.65368 0.283693,-8.47183 0.297896,-3.28712 0.912518,-6.52617 1.239268,-9.80874 0.206454,-3.54273 0.345442,-7.08264 0.333132,-10.6324 0.107115,-3.26521 0.349631,-6.52757 0.96827,-9.74135 0.957574,-5.20225 1.807803,-10.42268 2.543759,-15.66116 0.752623,-5.35314 1.60212,-10.70311 2.635209,-16.00747 1.571906,-5.10869 -5.65288,-7.3317 -7.224786,-2.22301 z" />
  <path
     style="fill:#000000;fill-opacity:1;stroke:#000000;stroke-width:2;stroke-dasharray:none;stroke-opacity:0"
     id="path27"
     d="m 54.856315,219.3097 c 3.414933,-1.55891 7.068341,-2.40675 10.768763,-2.92446 5.144725,-0.70758 10.294374,-0.46236 15.429195,0.12004 6.116939,0.76066 12.288312,0.85057 18.443219,0.96155 5.239638,0.16579 10.475248,0.43132 15.715358,0.58307 3.92862,0.21152 7.84598,-0.17264 11.77227,-0.18702 5.28967,-0.0846 10.55074,0.47153 15.81154,0.92607 3.48664,0.31152 6.98172,0.4786 10.48072,0.54783 2.60361,0.0367 5.20755,0.0316 7.81134,0.0283 1.81712,-0.003 3.63425,-0.005 5.45137,-0.007 0.97759,-5.4e-4 1.95518,-6.9e-4 2.93277,-8e-4 5.34506,-6e-4 5.34422,-7.55965 -8.4e-4,-7.55905 v 0 c -0.97891,1.1e-4 -1.95781,2.5e-4 -2.93672,8e-4 -1.81872,0.001 -3.63744,0.003 -5.45616,0.007 -2.55108,0.003 -5.10231,0.008 -7.65321,-0.0269 -3.33151,-0.065 -6.65914,-0.22432 -9.97886,-0.52126 -5.49134,-0.47405 -10.98349,-1.0434 -16.50474,-0.95399 -3.83991,0.0284 -7.6695,0.37418 -11.51098,0.19007 -5.26763,-0.15211 -10.53062,-0.42215 -15.797896,-0.58502 -5.91683,-0.10619 -11.850427,-0.18328 -17.730837,-0.91501 -5.775162,-0.6497 -11.572587,-0.89006 -17.354801,-0.0906 -4.323839,0.63687 -8.599736,1.6117 -12.59883,3.42877 -4.933901,2.05579 -2.026572,9.03338 2.907329,6.97759 z" />
  <path
     style="fill:#000000;fill-opacity:1;stroke:#000000;stroke-width:2;stroke-dasharray:none;stroke-opacity:0"
     id="path28"
     d="m 174.96318,118.90851 c 0.40862,6.98162 0.0265,13.97156 -0.56527,20.92985 -0.51811,4.55844 -1.48344,9.03161 -2.95671,13.37217 -1.31751,3.92087 -2.70137,7.81464 -3.72444,11.82485 -0.89424,3.64915 -0.92587,7.3981 -0.47735,11.10568 0.46561,3.02544 1.10431,6.02838 1.85896,8.9949 0.51922,2.11082 1.09732,4.20741 1.59062,6.32452 0.39254,1.66812 0.53971,3.37448 0.62148,5.08157 0.007,0.23076 0.0143,0.46153 0.0215,0.69229 0.17016,5.34235 7.72538,5.10172 7.55523,-0.24063 v 0 c -0.009,-0.27408 -0.0178,-0.54815 -0.0267,-0.82223 -0.10836,-2.16506 -0.31312,-4.32757 -0.81331,-6.44221 -0.51303,-2.16385 -1.09041,-4.31166 -1.62634,-6.46988 -0.68768,-2.65905 -1.24526,-5.35796 -1.68231,-8.06874 -0.37296,-2.76189 -0.33502,-5.57198 0.30524,-8.29652 0.9642,-3.8259 2.32026,-7.52751 3.56082,-11.26993 1.64794,-4.92131 2.76761,-9.98118 3.32547,-15.14802 0.60466,-7.16978 1.01045,-14.37387 0.59223,-21.56767 0,-5.34505 -7.55906,-5.34505 -7.55906,0 z" />
  <path
     style="fill:#000000;fill-opacity:1;stroke:#000000;stroke-width:2;stroke-dasharray:none;stroke-opacity:0"
     id="path29"
     d="m 190.189,213.23384 c 7.26339,-0.38238 14.54245,-0.38689 21.81413,-0.45078 1.4338,-0.01 2.86759,-0.0203 4.3014,-0.0288 3.26371,-0.0195 4.08141,0.0309 7.30947,-0.17935 3.21709,-0.20956 6.4283,-0.59871 9.63998,-0.8789 5.30267,-0.21478 10.6516,-0.95135 15.96583,-0.57186 1.01152,0.0722 2.01461,0.23432 3.02192,0.35148 6.86111,1.0325 13.60709,2.68534 20.34229,4.32632 3.69294,0.88633 7.38888,1.80754 11.16963,2.22373 2.98625,0.22259 5.98558,0.16049 8.9778,0.15283 2.55613,-0.008 5.10717,0.0573 7.65097,-0.22024 1.48671,-0.20442 2.98525,-0.26056 4.47286,-0.45177 5.29526,-0.72792 4.26582,-8.21655 -1.02944,-7.48863 v 0 c -1.41642,0.21958 -2.86364,0.19031 -4.2802,0.42781 -2.26963,0.25976 -4.55231,0.13797 -6.83356,0.1738 -2.71844,0.007 -5.44237,0.0612 -8.15685,-0.11023 -3.45064,-0.35153 -6.80971,-1.28142 -10.18232,-2.05163 -7.048,-1.71623 -14.10845,-3.44372 -21.29302,-4.49443 -1.22549,-0.13196 -2.44663,-0.31387 -3.67648,-0.39587 -5.59688,-0.37318 -11.22345,0.34884 -16.80705,0.59829 -3.10722,0.27161 -6.21459,0.64962 -9.32663,0.85809 -3.06561,0.20535 -3.84368,0.15274 -7.01585,0.17168 -1.43907,0.009 -2.87813,0.0193 -4.31719,0.0289 -7.45883,0.0656 -14.92583,0.0675 -22.37544,0.4766 -5.32659,0.44389 -4.69885,7.97683 0.62775,7.53295 z" />
  <path
     style="fill:#000000;fill-opacity:1;stroke:#000000;stroke-width:2;stroke-dasharray:none;stroke-opacity:0"
     id="path30"
     d="m 179.19021,224.36741 c 0.0935,3.1682 -0.19559,6.32488 -0.35875,9.48543 -0.24877,3.17401 -0.65515,6.33503 -1.12628,9.48316 -0.5739,3.39647 -0.74459,6.83784 -0.85819,10.27458 -0.0253,3.77908 0.78883,7.51012 1.98276,11.07711 1.54865,4.35941 4.65094,7.81494 7.57473,11.29802 4.76095,5.67169 0.93928,1.06667 5.29585,6.33968 1.52094,2.34723 4.86112,5.90528 3.87293,9.01069 -0.52872,1.95518 -1.41035,3.77434 -2.17527,5.64069 -0.73206,1.94258 -1.32817,3.93185 -2.03408,5.8832 -0.4462,1.14917 -0.7485,2.33987 -0.99656,3.54451 -1.04655,5.2416 6.3662,6.72164 7.41274,1.48003 v 0 c 0.15898,-0.84403 0.38537,-1.66999 0.69867,-2.47145 0.66113,-1.85385 1.25078,-3.73178 1.91924,-5.58335 0.95987,-2.37203 2.08384,-4.68581 2.62408,-7.20741 0.0922,-0.68435 0.25574,-1.36282 0.27672,-2.05304 0.15155,-4.98595 -2.99014,-9.23155 -5.77129,-13.05878 -3.72443,-4.50698 -1.34526,-1.64869 -5.32931,-6.37988 -2.32982,-2.76673 -4.91238,-5.45625 -6.2187,-8.89655 -0.95337,-2.67688 -1.53133,-5.53172 -1.57753,-8.37538 0.10262,-3.14718 0.24897,-6.29957 0.77983,-9.40938 0.50236,-3.38899 0.94533,-6.7904 1.19873,-10.20799 0.16871,-3.28984 0.46426,-6.57612 0.36873,-9.87389 0,-5.34506 -7.55905,-5.34506 -7.55905,0 z" />
  <path
     style="fill:#000000;fill-opacity:1;stroke:#000000;stroke-width:2;stroke-dasharray:none;stroke-opacity:0"
     id="path31"
     d="m 162.66679,225.10135 c -1.55582,1.66674 -3.00946,3.42535 -4.5498,5.10592 -0.56246,0.61367 -1.09055,1.26473 -1.71442,1.81585 -1.67874,1.483 -3.56148,2.47314 -5.47483,3.62811 -8.02783,4.1996 -16.39165,7.69107 -24.47923,11.77107 -7.40068,4.14789 -15.23298,7.42311 -22.80911,11.2222 -5.544861,2.75824 -10.689335,6.16214 -15.576079,9.94624 -3.193561,2.55397 -6.416616,5.0654 -9.573696,7.66461 -3.410655,2.87521 -6.630313,5.96571 -9.985222,8.90482 -2.711732,2.5042 -5.509843,4.90111 -7.994841,7.63431 -0.780899,0.97931 -1.707031,1.82661 -2.511534,2.78474 -0.424395,0.50544 -0.804319,1.14532 -1.321558,1.57495 -0.635854,0.67974 -0.339382,0.36261 -0.878454,0.67574 -4.610498,2.70425 -0.786109,9.22448 3.824388,6.52023 v 0 c 0.863094,-0.50938 1.709755,-1.05365 2.369786,-1.82173 1.442488,-1.48587 2.654097,-3.18424 4.117586,-4.65684 2.282233,-2.52599 4.894145,-4.70224 7.377445,-7.02714 3.294606,-2.88971 6.464253,-5.91897 9.806987,-8.75339 3.100401,-2.55263 6.265713,-5.01898 9.40189,-7.52731 4.493494,-3.49151 9.228432,-6.62263 14.333422,-9.16302 7.57915,-3.80562 15.42177,-7.07361 22.82457,-11.22998 8.26981,-4.17482 16.84217,-7.7102 25.01887,-12.07167 3.20857,-1.98504 4.29872,-2.44929 7.02934,-4.89017 2.2617,-2.0217 3.97631,-4.6155 6.10955,-6.76249 3.77953,-3.77952 -1.56553,-9.12458 -5.34506,-5.34505 z" />
  <path
     style="fill:#000000;fill-opacity:1;stroke:#000000;stroke-width:2;stroke-dasharray:none;stroke-opacity:0"
     id="path32"
     d="m 50.486909,231.86121 c 4.56581,3.21746 8.817792,6.8444 13.305182,10.17106 7.67212,5.86477 16.162467,10.41875 24.706121,14.84978 8.025337,3.95359 15.726148,8.50899 23.396338,13.10095 4.9278,2.87902 10.01854,5.4579 15.27298,7.68285 3.41986,1.4188 6.99204,2.45584 10.35883,4.0005 3.32862,2.06797 6.44416,4.45107 9.7655,6.54041 2.80588,1.89826 5.78337,3.49142 8.78348,5.05363 1.77359,0.7876 3.45271,1.68953 4.82434,3.06659 1.30376,1.44914 2.89995,2.43595 4.59891,3.34093 1.49062,0.6977 2.9069,1.52673 4.30551,2.38882 0.20498,0.13392 0.40997,0.26783 0.61495,0.40175 4.4794,2.91628 8.60364,-3.41855 4.12424,-6.33482 v 0 c -0.25779,-0.16737 -0.51559,-0.33475 -0.77338,-0.50212 -1.5396,-0.9486 -3.09844,-1.86336 -4.73643,-2.63523 -1.07022,-0.56337 -2.05103,-1.08583 -2.84477,-2.05983 -1.93415,-1.86725 -4.15031,-3.29928 -6.62244,-4.37076 -2.81993,-1.46812 -5.62141,-2.95615 -8.25338,-4.74979 -3.61182,-2.26552 -6.94316,-4.94815 -10.66765,-7.02521 -3.43962,-1.54281 -7.0348,-2.68618 -10.53627,-4.07815 -4.93417,-2.07873 -9.70363,-4.51269 -14.33178,-7.20528 -7.8024,-4.67065 -15.6376,-9.3011 -23.799365,-13.3258 -8.188391,-4.24502 -16.336178,-8.58807 -23.686474,-14.21343 -4.544273,-3.36303 -8.838039,-7.04688 -13.469609,-10.28947 -4.378843,-3.06519 -8.713676,3.12743 -4.334833,6.19262 z" />
  <path
     style="fill:#000000;fill-opacity:1;stroke:#000000;stroke-width:2;stroke-dasharray:none;stroke-opacity:0"
     id="path33"
     d="m 192.33689,227.10818 c 4.27293,3.8632 8.926,7.26316 13.72041,10.44307 8.86956,5.51779 17.98692,10.61677 27.05878,15.78972 4.75336,2.97158 9.73311,5.62549 14.25398,8.95954 1.27528,0.9405 2.91876,2.35924 4.13374,3.38377 3.81407,3.44054 7.38528,7.13219 11.02927,10.7485 3.05221,2.90907 6.0146,5.91203 9.06163,8.82634 3.04356,2.71853 5.72305,5.79542 8.40086,8.86447 2.77984,3.03991 5.36427,6.25552 8.17362,9.2676 1.0878,1.31525 2.44017,2.36227 3.70026,3.50002 3.97303,3.57557 9.02965,-2.04314 5.05662,-5.61871 v 0 c -1.10358,-0.99053 -2.29396,-1.89208 -3.23794,-3.04664 -2.76056,-2.93723 -5.26528,-6.10865 -7.99766,-9.07293 -2.82874,-3.23982 -5.66512,-6.48319 -8.87362,-9.35902 -3.01541,-2.87828 -5.93967,-5.85239 -8.95918,-8.72658 -3.79006,-3.76111 -7.50358,-7.60233 -11.48494,-11.16517 -1.59701,-1.34305 -3.02626,-2.58606 -4.71573,-3.82753 -4.69875,-3.45274 -9.85603,-6.22494 -14.79657,-9.30019 -8.9261,-5.08975 -17.89584,-10.10789 -26.6297,-15.52571 -4.55305,-3.00966 -8.96031,-6.24355 -13.01112,-9.91103 -4.08035,-3.4526 -8.96306,2.31788 -4.88271,5.77048 z" />
  <path
     style="fill:#000000;fill-opacity:1;stroke:#000000;stroke-width:2;stroke-dasharray:none;stroke-opacity:0"
     id="path34"
     d="m 302.75457,225.79452 c -3.18068,3.81553 -6.16599,7.78547 -9.27345,11.65944 -3.42497,4.48961 -7.29764,8.59799 -11.26058,12.60973 -4.01497,3.99995 -8.06584,7.96362 -12.09593,11.94832 -3.80382,3.76593 -7.59093,7.5487 -11.37771,11.33176 -3.51954,3.39715 -7.05824,6.77396 -10.41058,10.33771 -2.52708,2.80115 -5.27045,5.34823 -8.4219,7.42534 -3.60546,1.97445 -7.46053,3.3637 -11.33737,4.68494 -2.90468,1.00226 -5.52246,2.59737 -8.14637,4.16217 -2.11988,1.11147 -4.27005,2.16747 -6.4331,3.19276 -1.89704,0.74049 -3.47728,1.89965 -4.94914,3.2785 -3.81387,3.74487 1.48217,9.1385 5.29604,5.39363 v 0 c 0.78474,-0.88941 1.80501,-1.38188 2.89161,-1.84194 2.3794,-1.12851 4.74847,-2.28511 7.06813,-3.53179 2.16995,-1.29578 4.31596,-2.64848 6.71126,-3.49838 4.49734,-1.53271 8.96824,-3.17234 13.10101,-5.55643 0.70038,-0.47352 1.4194,-0.92057 2.10112,-1.42056 2.8131,-2.0632 5.22815,-4.59821 7.62748,-7.11207 3.29366,-3.50959 6.78815,-6.81831 10.24425,-10.1662 3.77756,-3.77386 7.55543,-7.54743 11.34998,-11.30421 4.05147,-4.00586 8.12411,-7.9903 12.15973,-12.01215 4.14432,-4.19795 8.1915,-8.49983 11.77925,-13.19222 3.02643,-3.77521 5.94072,-7.6381 9.02598,-11.36639 3.55106,-3.99494 -2.09865,-9.01691 -5.64971,-5.02196 z" />
  <path
     style="fill:#000000;fill-opacity:1;stroke:#000000;stroke-width:2;stroke-dasharray:none;stroke-opacity:0"
     id="path35"
     d="m 46.06625,124.90514 c 3.758163,3.19854 7.385332,6.59651 11.320411,9.58343 1.056637,0.80205 2.160328,1.54013 3.240492,2.3102 10.668555,6.56516 22.549693,10.76651 34.152549,15.33656 5.295678,2.08948 10.587728,4.19745 15.822248,6.43736 2.298,0.98335 4.53312,1.9927 6.67579,3.27548 2.21994,1.74891 3.79003,4.16614 5.59614,6.31341 3.11994,3.69113 6.52629,7.11828 9.93932,10.53468 2.89972,2.88922 5.81014,5.76766 8.71552,8.65118 1.85474,1.8454 3.79588,3.57994 5.4739,5.59259 1.88212,2.33515 3.94323,4.50105 5.99231,6.68642 0.98009,0.88495 1.80782,1.98458 2.89415,2.7536 0.46439,0.32874 0.97592,0.5852 1.46388,0.87779 4.73751,2.47502 8.23771,-4.22483 3.5002,-6.69984 v 0 c -0.008,0.0334 0.004,0.11938 -0.0244,0.10028 -0.88731,-0.59196 -1.5226,-1.51573 -2.32235,-2.20509 -1.95714,-2.08311 -3.92695,-4.14488 -5.71782,-6.37747 -1.8393,-2.17397 -3.89829,-4.10862 -5.93506,-6.09349 -2.89779,-2.87598 -5.80058,-5.74692 -8.69279,-8.62851 -3.26357,-3.26648 -6.52564,-6.53852 -9.50984,-10.06709 -2.36455,-2.79148 -4.4022,-5.93685 -7.53828,-7.95251 -7.41308,-4.31051 -15.72192,-6.84577 -23.56277,-10.23195 -11.038068,-4.3476 -22.336578,-8.33518 -32.547717,-14.4677 -0.946457,-0.6683 -1.915945,-1.30512 -2.839372,-2.0049 -3.956114,-2.99795 -7.592702,-6.41956 -11.374437,-9.62706 -4.17379,-3.33904 -8.895894,2.56359 -4.722104,5.90263 z" />
  <path
     style="fill:#000000;fill-opacity:1;stroke:#000000;stroke-width:2;stroke-dasharray:none;stroke-opacity:0"
     id="path36"
     d="m 154.8166,118.82189 c -4.09453,3.75105 -7.84455,7.88251 -11.99291,11.57447 -1.77604,1.58064 -3.64186,3.05742 -5.46279,4.58612 -8.57377,7.01253 -17.8057,13.14351 -26.69471,19.73402 -3.82134,2.84377 -7.62928,5.70239 -11.358328,8.66632 -3.189459,2.74684 -6.660077,5.10285 -10.123246,7.47926 -3.133677,1.95934 -5.958042,4.37476 -9.06193,6.36503 -4.095012,2.43872 -8.135033,4.96838 -12.156306,7.52643 -2.525529,1.68518 -5.087459,3.31303 -7.671636,4.90599 -1.030813,0.74653 -2.17324,1.30188 -3.296551,1.88892 -4.737166,2.47566 -1.23605,9.17503 3.501117,6.69937 v 0 c 1.281163,-0.66955 2.57811,-1.31715 3.762182,-2.15368 2.61441,-1.61183 5.207564,-3.2571 7.762262,-4.96275 4.046788,-2.57458 8.115195,-5.11568 12.232819,-7.57575 3.125524,-2.06926 6.049817,-4.42902 9.206185,-6.46164 3.607419,-2.47759 7.219972,-4.93932 10.548672,-7.79377 3.66286,-2.91168 7.4043,-5.71843 11.15771,-8.51226 9.01104,-6.68528 18.37751,-12.895 27.05863,-20.02165 1.94374,-1.63911 3.93246,-3.22633 5.83121,-4.91735 4.18539,-3.72747 7.97245,-7.89401 12.10268,-11.68202 3.77953,-3.77952 -1.56553,-9.12458 -5.34506,-5.34506 z" />
  <path
     style="fill:#000000;fill-opacity:1;stroke:#000000;stroke-width:2;stroke-dasharray:none;stroke-opacity:0"
     id="path37"
     d="m 194.80825,123.14253 c 5.50173,4.09811 10.78519,8.48725 16.20243,12.69812 6.4423,5.08548 13.16017,9.8026 19.7416,14.70297 3.34051,2.40255 6.41761,5.15668 9.71765,7.60985 2.61513,1.94402 3.71685,2.58916 6.45686,4.35512 5.78128,3.30017 11.45948,6.77294 17.16874,10.19388 3.72877,2.1401 6.88932,5.05923 10.16106,7.80822 3.5623,3.06594 6.95962,6.30326 10.18835,9.71679 2.70503,2.74473 5.28956,5.61048 8.13773,8.20948 1.36453,1.14753 2.74445,2.28912 4.17573,3.35374 4.31781,3.15057 8.7734,-2.95575 4.45558,-6.10632 v 0 c -1.23897,-0.86543 -2.36537,-1.90692 -3.54955,-2.8434 -2.72042,-2.45541 -5.14162,-5.21813 -7.72931,-7.80939 -3.42878,-3.62107 -7.03385,-7.05909 -10.81759,-10.30973 -3.5801,-3.00429 -7.0553,-6.17077 -11.13749,-8.50398 -5.64091,-3.37822 -11.2457,-6.81713 -16.96341,-10.06638 -2.31277,-1.48502 -3.65381,-2.28891 -5.8486,-3.91979 -3.3625,-2.49858 -6.49674,-5.30548 -9.9015,-7.75116 -6.53984,-4.86905 -13.21486,-9.55648 -19.61726,-14.60838 -5.56229,-4.32217 -10.97589,-8.84309 -16.64801,-13.01915 -4.44736,-2.96491 -8.64037,3.32461 -4.19301,6.28951 z" />
  <path
     style="fill:#000000;fill-opacity:1;stroke:#000000;stroke-width:2;stroke-dasharray:none;stroke-opacity:0"
     id="path38"
     d="m 299.88759,119.88515 c -2.20509,2.30863 -4.36935,4.65596 -6.55775,6.98076 -2.24744,2.51164 -4.42255,5.07753 -6.75202,7.51455 -2.88793,3.19235 -6.06636,6.10111 -9.12814,9.12278 -3.4853,3.52955 -7.17856,6.85069 -11.00832,10.00111 -3.25924,2.50303 -6.75876,4.66214 -10.37778,6.59888 -2.7649,1.39479 -5.51615,2.84214 -8.39157,3.99864 -2.73936,1.09374 -5.48269,2.17554 -8.20576,3.31106 -3.33952,1.10435 -6.1866,3.13009 -9.13992,4.96137 -2.81137,1.94402 -5.76414,3.64208 -8.82244,5.16182 -2.61242,1.22914 -5.1523,2.58755 -7.67596,3.9871 -2.65781,1.5742 -5.31205,3.15452 -7.96663,4.73436 -2.06041,1.29566 -4.30307,2.25064 -6.41072,3.45714 -1.44136,0.71944 -2.87887,1.45106 -4.28807,2.23114 -4.6508,2.63433 -0.9253,9.21156 3.72551,6.57723 v 0 c 1.40123,-0.83653 2.91786,-1.48092 4.34833,-2.26564 2.11826,-1.24607 4.42608,-2.1559 6.49094,-3.50423 2.58848,-1.54065 5.17747,-3.08055 7.76679,-4.61951 2.42662,-1.34585 4.86691,-2.65419 7.38122,-3.83203 3.26822,-1.6326 6.44055,-3.43249 9.44866,-5.5119 2.60145,-1.62761 5.09399,-3.44165 8.0521,-4.40029 2.70448,-1.12823 5.42928,-2.20245 8.15039,-3.28823 3.11058,-1.2816 6.11944,-2.79578 9.10912,-4.33618 4.05247,-2.17664 7.97434,-4.59954 11.6113,-7.42579 4.00105,-3.2987 7.86843,-6.76476 11.51275,-10.4561 3.11414,-3.07388 6.34604,-6.03373 9.28373,-9.28092 2.34128,-2.45166 4.54098,-5.0209 6.79074,-7.55539 2.136,-2.26941 4.24847,-4.56106 6.39856,-6.81667 3.77953,-3.77953 -1.56553,-9.12459 -5.34506,-5.34506 z" />
</svg>
